<?xml version="1.0" standalone="no" ?>
<!DOCTYPE svg PUBLIC "-//W3C//DTD SVG 1.1//EN" "http://www.w3.org/Graphics/SVG/1.1/DTD/svg11.dtd">
<svg width="1032px" height="240px" viewBox="0 0 1032 240" style="background-color: #ffffff00" xmlns="http://www.w3.org/2000/svg" xmlns:xlink="http://www.w3.org/1999/xlink" version="1.1" >
<text x="0" y="0" stroke="transparent" fill="#000000" transform="matrix(0.1 0 0 0.1 35.43 135.69)" style="font:normal normal bold 180px 'Inter'" >
Fe</text>
<text x="0" y="0" stroke="transparent" fill="#000000" transform="matrix(0.1 0 0 0.1 56.7577 139.99)" style="font:normal normal bold 135px 'Inter'" >
A</text>
<text x="0" y="0" stroke="transparent" fill="#000000" transform="matrix(0.1 0 0 0.1 66.8577 135.69)" style="font:normal normal bold 180px 'Inter'" >
(III)</text>
<path stroke="transparent" fill="#000000" transform="matrix(0.1 0 0 0.1 -4.9 -237.8)" d="M 500.4,3431.4 L 500.4,3578.2 L 480.4,3578.2 L 480.4,3431.4 Z " />
<path stroke="transparent" fill="#000000" transform="matrix(0.1 0 0 0.1 -4.9 -237.8)" d="M 460.8,3745.4 L 430.8,3889 L 410.8,3885 L 440.8,3741.4 Z " />
<path stroke="transparent" fill="#000000" transform="matrix(0.1 0 0 0.1 -4.9 -237.8)" d="M 529.1,3741.8 L 571.1,3882.6 L 552.1,3888.6 L 510.1,3747.8 Z " />
<path stroke="transparent" fill="#000000" transform="matrix(0.1 0 0 0.1 -4.9 -237.8)" d="M 396,3703 L 249.2,3703.8 L 249.2,3683.8 L 396,3683 Z " />
<path stroke="transparent" fill="#000000" transform="matrix(0.1 0 0 0.1 -4.9 -237.8)" d="M 391.7,3623 L 261.3,3555.4 L 270.3,3537.4 L 400.7,3605 Z " />
<path stroke="transparent" fill="#000000" transform="matrix(0.1 0 0 0.1 -4.9 -237.8)" d="M 865.2,3456.5 L 596,3611.9 L 586,3594.9 L 855.2,3439.5 Z " />
<text x="0" y="0" stroke="transparent" fill="#000000" transform="matrix(0.1 0 0 0.1 47.16 167.15)" style="font:normal normal bold 180px 'Inter'" >
N</text>
<text x="0" y="0" stroke="transparent" fill="#000000" transform="matrix(0.1 0 0 0.1 29.54 166.31)" style="font:normal normal bold 180px 'Inter'" >
N</text>
<text x="0" y="0" stroke="transparent" fill="#000000" transform="matrix(0.1 0 0 0.1 4.81998 139.05)" style="font:normal normal bold 180px 'Inter'" >
N</text>
<text x="0" y="0" stroke="transparent" fill="#000000" transform="matrix(0.1 0 0 0.1 5.63998 120.19)" style="font:normal normal bold 180px 'Inter'" >
N</text>
<text x="0" y="0" stroke="transparent" fill="#000000" transform="matrix(0.1 0 0 0.1 37.52 104.67)" style="font:normal normal bold 180px 'Inter'" >
N</text>
<text x="0" y="0" stroke="transparent" fill="#000000" transform="matrix(0.1 0 0 0.1 83.63 109.27)" style="font:normal normal bold 180px 'Inter'" >
O</text>
<text x="0" y="0" stroke="transparent" fill="#000000" transform="matrix(0.1 0 0 0.1 97.73 102.42)" style="font:normal normal bold 135px 'Inter'" >
1-</text>
<path stroke="transparent" fill="#000000" transform="matrix(0.1 0 0 0.1 -4.9 -237.8)" d="M 858.7,3213.2 L 914.1,3309 L 897.1,3319 L 841.7,3223.2 Z " />
<text x="0" y="0" stroke="transparent" fill="#000000" transform="matrix(0.1 0 0 0.1 67.54 82.95)" style="font:normal normal bold 180px 'Inter'" >
H</text>
<text x="0" y="0" stroke="transparent" fill="#000000" transform="matrix(0.1 0 0 0.1 220.81 140.31)" style="font:normal normal bold 180px 'Inter'" >
Fe</text>
<text x="0" y="0" stroke="transparent" fill="#000000" transform="matrix(0.1 0 0 0.1 242.138 144.61)" style="font:normal normal bold 135px 'Inter'" >
B</text>
<text x="0" y="0" stroke="transparent" fill="#000000" transform="matrix(0.1 0 0 0.1 251.059 140.31)" style="font:normal normal bold 180px 'Inter'" >
(IV)</text>
<path stroke="transparent" fill="#000000" transform="matrix(0.1 0 0 0.1 -4.9 -237.8)" d="M 2548.6,3488.2 L 2413.8,3623 L 2399.8,3609 L 2534.6,3474.2 Z " />
<path stroke="transparent" fill="#000000" transform="matrix(0.1 0 0 0.1 -4.9 -237.8)" d="M 2198.2,3907 L 2290.8,3814.4 L 2304.8,3828.4 L 2212.2,3921 Z " />
<path stroke="transparent" fill="#000000" transform="matrix(0.1 0 0 0.1 -4.9 -237.8)" d="M 2486,3910.6 L 2412.4,3836.8 L 2426.4,3822.8 L 2500,3896.6 Z " />
<path stroke="transparent" fill="#000000" transform="matrix(0.1 0 0 0.1 -4.9 -237.8)" d="M 2205.9,3455.6 L 2297.9,3615.2 L 2280.9,3625.2 L 2188.9,3465.6 Z " />
<path stroke="transparent" fill="#000000" transform="matrix(0.1 0 0 0.1 -4.9 -237.8)" d="M 2180.7,3472.4 L 2272.9,3632 L 2255.9,3642 L 2163.7,3482.4 Z " />
<text x="0" y="0" stroke="transparent" fill="#000000" transform="matrix(0.1 0 0 0.1 201.89 110.13)" style="font:normal normal bold 180px 'Inter'" >
O</text>
<text x="0" y="0" stroke="transparent" fill="#000000" transform="matrix(0.1 0 0 0.1 215.99 103.28)" style="font:normal normal bold 135px 'Inter'" >
2-</text>
<path stroke="#000000" stroke-width="20" fill="transparent" transform="matrix(0.1 0 0 0.1 -4.9 -237.8)" stroke-dasharray="54" d="M 2030.8,3674.8 L 2218.2,3725 " />
<text x="0" y="0" stroke="transparent" fill="#000000" transform="matrix(0.1 0 0 0.1 205.68 167.57)" style="font:normal normal bold 180px 'Inter'" >
N</text>
<text x="0" y="0" stroke="transparent" fill="#000000" transform="matrix(0.1 0 0 0.1 241.34 169.25)" style="font:normal normal bold 180px 'Inter'" >
N</text>
<text x="0" y="0" stroke="transparent" fill="#000000" transform="matrix(0.1 0 0 0.1 283.14 139.73)" style="font:normal normal bold 180px 'Inter'" >
N</text>
<text x="0" y="0" stroke="transparent" fill="#000000" transform="matrix(0.1 0 0 0.1 250.14 111.79)" style="font:normal normal bold 180px 'Inter'" >
N</text>
<text x="0" y="0" stroke="transparent" fill="#000000" transform="matrix(0.1 0 0 0.1 158.06 132.35)" style="font:normal normal bold 180px 'Inter'" >
H</text>
<text x="0" y="0" stroke="transparent" fill="#000000" transform="matrix(0.1 0 0 0.1 171.49 136.65)" style="font:normal normal bold 135px 'Inter'" >
2</text>
<text x="0" y="0" stroke="transparent" fill="#000000" transform="matrix(0.1 0 0 0.1 179.994 132.35)" style="font:normal normal bold 180px 'Inter'" >
O</text>
<path stroke="#000000" stroke-width="20" fill="transparent" transform="matrix(0.1 0 0 0.1 -4.9 -237.8)" stroke-dasharray="54" d="M 1621.4,3594.2 L 1123.6,3460.8 " />
<text x="0" y="0" stroke="transparent" fill="#000000" transform="matrix(0.1 0 0 0.1 123.75 51.83)" style="font:normal normal bold 180px 'Inter'" >
C</text>
<text x="0" y="0" stroke="transparent" fill="#000000" transform="matrix(0.1 0 0 0.1 137.288 56.13)" style="font:normal normal bold 135px 'Inter'" >
10</text>
<path stroke="transparent" fill="#000000" transform="matrix(0.1 0 0 0.1 -4.9 -237.8)" d="M 1741.4,2845 L 1608.8,2845 L 1608.8,2825 L 1741.4,2825 Z " />
<text x="0" y="0" stroke="transparent" fill="#000000" transform="matrix(0.1 0 0 0.1 171.99 51.41)" style="font:normal normal bold 180px 'Inter'" >
C</text>
<text x="0" y="0" stroke="transparent" fill="#000000" transform="matrix(0.1 0 0 0.1 185.528 55.71)" style="font:normal normal bold 135px 'Inter'" >
9</text>
<path stroke="transparent" fill="#000000" transform="matrix(0.1 0 0 0.1 -4.9 -237.8)" d="M 2011.4,2666.6 L 1927.4,2750.6 L 1913.4,2736.6 L 1997.4,2652.6 Z " />
<path stroke="transparent" fill="#000000" transform="matrix(0.1 0 0 0.1 -4.9 -237.8)" d="M 2149.7,2793.9 L 1973.1,2841.3 L 1968.1,2822.3 L 2144.7,2774.9 Z " />
<path stroke="transparent" fill="#000000" transform="matrix(0.1 0 0 0.1 -4.9 -237.8)" d="M 1220.6,2650.6 L 1302.6,2732.6 L 1288.6,2746.6 L 1206.6,2664.6 Z " />
<text x="0" y="0" stroke="transparent" fill="#000000" transform="matrix(0.1 0 0 0.1 101.92 31.77)" style="font:normal normal bold 180px 'Inter'" >
H</text>
<text x="0" y="0" stroke="transparent" fill="#000000" transform="matrix(0.1 0 0 0.1 188.82 86.21)" style="font:normal normal bold 180px 'Inter'" >
H</text>
<text x="0" y="0" stroke="transparent" fill="#000000" transform="matrix(0.1 0 0 0.1 211.46 45.53)" style="font:normal normal bold 180px 'Inter'" >
H</text>
<text x="0" y="0" stroke="transparent" fill="#000000" transform="matrix(0.1 0 0 0.1 195.1 28.35)" style="font:normal normal bold 180px 'Inter'" >
H</text>
<path stroke="transparent" fill="#000000" transform="matrix(0.1 0 0 0.1 -4.9 -237.8)" d="M 1942.1,3090.2 L 1848.9,2929 L 1865.9,2919 L 1959.1,3080.2 Z " />
<path stroke="#000000" stroke-width="20" fill="transparent" transform="matrix(0.1 0 0 0.1 -4.9 -237.8)" d="M 2225.98,3174.82 C 2210.83,3088.54 2129.59,3020.23 2042.07,3020.2 " />
<path stroke="transparent" fill="#000000" transform="matrix(0.1 0 0 0.1 -4.9 -237.8)" d="M 2198.74,3309.26 C 2198.74,3309.26 2220.98,3183.32 2220.98,3183.32 C 2240.76,3177.76 2266.14,3164.19 2266.14,3164.19 C 2266.14,3164.19 2198.74,3309.26 2198.74,3309.26 C 2198.74,3309.26 2198.74,3309.26 2198.74,3309.26 " />
<path stroke="#000000" stroke-width="1" fill="transparent" transform="matrix(0.1 0 0 0.1 -4.9 -237.8)" d="M 2198.74,3309.26 C 2198.74,3309.26 2220.98,3183.32 2220.98,3183.32 C 2240.76,3177.76 2266.14,3164.19 2266.14,3164.19 C 2266.14,3164.19 2198.74,3309.26 2198.74,3309.26 C 2198.74,3309.26 2198.74,3309.26 2198.74,3309.26 " />
<path stroke="#000000" stroke-width="20" fill="transparent" transform="matrix(0.1 0 0 0.1 -4.9 -237.8)" d="M 1767.13,2973.94 C 1774.43,3016.14 1814.16,3049.65 1857.08,3049.8 " />
<path stroke="transparent" fill="#000000" transform="matrix(0.1 0 0 0.1 -4.9 -237.8)" d="M 1783.23,2903.92 C 1783.23,2903.92 1772.13,2965.44 1772.13,2965.44 C 1763.5,2973.13 1746.97,2978.56 1746.97,2978.56 C 1746.97,2978.56 1783.23,2903.92 1783.23,2903.92 C 1783.23,2903.92 1783.23,2903.92 1783.23,2903.92 " />
<path stroke="#000000" stroke-width="1" fill="transparent" transform="matrix(0.1 0 0 0.1 -4.9 -237.8)" d="M 1783.23,2903.92 C 1783.23,2903.92 1772.13,2965.44 1772.13,2965.44 C 1763.5,2973.13 1746.97,2978.56 1746.97,2978.56 C 1746.97,2978.56 1783.23,2903.92 1783.23,2903.92 C 1783.23,2903.92 1783.23,2903.92 1783.23,2903.92 " />
<text x="0" y="0" stroke="transparent" fill="#000000" transform="matrix(0.1 0 0 0.1 405.07 139.07)" style="font:normal normal bold 180px 'Inter'" >
Fe</text>
<text x="0" y="0" stroke="transparent" fill="#000000" transform="matrix(0.1 0 0 0.1 426.398 143.37)" style="font:normal normal bold 135px 'Inter'" >
A</text>
<text x="0" y="0" stroke="transparent" fill="#000000" transform="matrix(0.1 0 0 0.1 436.498 139.07)" style="font:normal normal bold 180px 'Inter'" >
(III)</text>
<path stroke="transparent" fill="#000000" transform="matrix(0.1 0 0 0.1 -4.9 -237.8)" d="M 4196.8,3465.2 L 4196.8,3612 L 4176.8,3612 L 4176.8,3465.2 Z " />
<path stroke="transparent" fill="#000000" transform="matrix(0.1 0 0 0.1 -4.9 -237.8)" d="M 4157.2,3779 L 4127.2,3922.8 L 4107.2,3918.8 L 4137.2,3775 Z " />
<path stroke="transparent" fill="#000000" transform="matrix(0.1 0 0 0.1 -4.9 -237.8)" d="M 4225.5,3775.6 L 4267.5,3916.2 L 4248.5,3922.2 L 4206.5,3781.6 Z " />
<path stroke="transparent" fill="#000000" transform="matrix(0.1 0 0 0.1 -4.9 -237.8)" d="M 4092.4,3736.8 L 3945.6,3737.6 L 3945.6,3717.6 L 4092.4,3716.8 Z " />
<path stroke="transparent" fill="#000000" transform="matrix(0.1 0 0 0.1 -4.9 -237.8)" d="M 4088.1,3656.8 L 3957.7,3589.2 L 3966.7,3571.2 L 4097.1,3638.8 Z " />
<path stroke="transparent" fill="#000000" transform="matrix(0.1 0 0 0.1 -4.9 -237.8)" d="M 4561.6,3490.3 L 4292.4,3645.7 L 4282.4,3628.7 L 4551.6,3473.3 Z " />
<text x="0" y="0" stroke="transparent" fill="#000000" transform="matrix(0.1 0 0 0.1 416.82 170.53)" style="font:normal normal bold 180px 'Inter'" >
N</text>
<text x="0" y="0" stroke="transparent" fill="#000000" transform="matrix(0.1 0 0 0.1 399.2 169.69)" style="font:normal normal bold 180px 'Inter'" >
N</text>
<text x="0" y="0" stroke="transparent" fill="#000000" transform="matrix(0.1 0 0 0.1 374.46 142.43)" style="font:normal normal bold 180px 'Inter'" >
N</text>
<text x="0" y="0" stroke="transparent" fill="#000000" transform="matrix(0.1 0 0 0.1 375.3 123.55)" style="font:normal normal bold 180px 'Inter'" >
N</text>
<text x="0" y="0" stroke="transparent" fill="#000000" transform="matrix(0.1 0 0 0.1 407.16 108.05)" style="font:normal normal bold 180px 'Inter'" >
N</text>
<text x="0" y="0" stroke="transparent" fill="#000000" transform="matrix(0.1 0 0 0.1 453.27 112.65)" style="font:normal normal bold 180px 'Inter'" >
O</text>
<text x="0" y="0" stroke="transparent" fill="#000000" transform="matrix(0.1 0 0 0.1 467.37 105.8)" style="font:normal normal bold 135px 'Inter'" >
1-</text>
<path stroke="transparent" fill="#000000" transform="matrix(0.1 0 0 0.1 -4.9 -237.8)" d="M 4555.1,3247 L 4610.5,3342.8 L 4593.5,3352.8 L 4538.1,3257 Z " />
<text x="0" y="0" stroke="transparent" fill="#000000" transform="matrix(0.1 0 0 0.1 437.66 86.57)" style="font:normal normal bold 180px 'Inter'" >
H</text>
<text x="0" y="0" stroke="transparent" fill="#000000" transform="matrix(0.1 0 0 0.1 590.43 143.69)" style="font:normal normal bold 180px 'Inter'" >
Fe</text>
<text x="0" y="0" stroke="transparent" fill="#000000" transform="matrix(0.1 0 0 0.1 611.758 147.99)" style="font:normal normal bold 135px 'Inter'" >
B</text>
<text x="0" y="0" stroke="transparent" fill="#000000" transform="matrix(0.1 0 0 0.1 620.679 143.69)" style="font:normal normal bold 180px 'Inter'" >
(IV)</text>
<path stroke="transparent" fill="#000000" transform="matrix(0.1 0 0 0.1 -4.9 -237.8)" d="M 6245.2,3521.8 L 6110.2,3656.8 L 6096.2,3642.8 L 6231.2,3507.8 Z " />
<path stroke="transparent" fill="#000000" transform="matrix(0.1 0 0 0.1 -4.9 -237.8)" d="M 5894.6,3940.8 L 5987.2,3848.2 L 6001.2,3862.2 L 5908.6,3954.8 Z " />
<path stroke="transparent" fill="#000000" transform="matrix(0.1 0 0 0.1 -4.9 -237.8)" d="M 6182.6,3944.2 L 6108.8,3870.6 L 6122.8,3856.6 L 6196.6,3930.2 Z " />
<path stroke="transparent" fill="#000000" transform="matrix(0.1 0 0 0.1 -4.9 -237.8)" d="M 5877.1,3506.2 L 5969.1,3665.6 L 5952.1,3675.6 L 5860.1,3516.2 Z " />
<text x="0" y="0" stroke="transparent" fill="#000000" transform="matrix(0.1 0 0 0.1 566 111.39)" style="font:normal normal bold 180px 'Inter'" >
HO</text>
<text x="0" y="0" stroke="transparent" fill="#000000" transform="matrix(0.1 0 0 0.1 593.53 104.54)" style="font:normal normal bold 135px 'Inter'" >
1-</text>
<path stroke="#000000" stroke-width="20" fill="transparent" transform="matrix(0.1 0 0 0.1 -4.9 -237.8)" stroke-dasharray="54" d="M 5731.4,3709.6 L 5914.6,3758.6 " />
<text x="0" y="0" stroke="transparent" fill="#000000" transform="matrix(0.1 0 0 0.1 575.34 170.95)" style="font:normal normal bold 180px 'Inter'" >
N</text>
<text x="0" y="0" stroke="transparent" fill="#000000" transform="matrix(0.1 0 0 0.1 610.98 172.63)" style="font:normal normal bold 180px 'Inter'" >
N</text>
<text x="0" y="0" stroke="transparent" fill="#000000" transform="matrix(0.1 0 0 0.1 653.32 143.77)" style="font:normal normal bold 180px 'Inter'" >
N</text>
<text x="0" y="0" stroke="transparent" fill="#000000" transform="matrix(0.1 0 0 0.1 619.78 115.17)" style="font:normal normal bold 180px 'Inter'" >
N</text>
<text x="0" y="0" stroke="transparent" fill="#000000" transform="matrix(0.1 0 0 0.1 529.2 135.73)" style="font:normal normal bold 180px 'Inter'" >
H</text>
<text x="0" y="0" stroke="transparent" fill="#000000" transform="matrix(0.1 0 0 0.1 542.63 140.03)" style="font:normal normal bold 135px 'Inter'" >
2</text>
<text x="0" y="0" stroke="transparent" fill="#000000" transform="matrix(0.1 0 0 0.1 551.134 135.73)" style="font:normal normal bold 180px 'Inter'" >
O</text>
<path stroke="#000000" stroke-width="20" fill="transparent" transform="matrix(0.1 0 0 0.1 -4.9 -237.8)" stroke-dasharray="54" d="M 5317.6,3627.8 L 4820,3494.4 " />
<path stroke="transparent" fill="#000000" transform="matrix(0.1 0 0 0.1 -4.9 -237.8)" d="M 5444.8,2858.6 L 5303.6,2858.6 L 5303.6,2838.6 L 5444.8,2838.6 Z " />
<text x="0" y="0" stroke="transparent" fill="#000000" transform="matrix(0.1 0 0 0.1 541.63 54.77)" style="font:normal normal bold 180px 'Inter'" >
C</text>
<text x="0" y="0" stroke="transparent" fill="#000000" transform="matrix(0.1 0 0 0.1 555.168 59.07)" style="font:normal normal bold 135px 'Inter'" >
9</text>
<path stroke="transparent" fill="#000000" transform="matrix(0.1 0 0 0.1 -4.9 -237.8)" d="M 4917.2,2684.4 L 4999,2766.2 L 4985,2780.2 L 4903.2,2698.4 Z " />
<text x="0" y="0" stroke="transparent" fill="#000000" transform="matrix(0.1 0 0 0.1 472.32 34.91)" style="font:normal normal bold 180px 'Inter'" >
H</text>
<path stroke="transparent" fill="#000000" transform="matrix(0.1 0 0 0.1 -4.9 -237.8)" d="M 5508.61,2728.95 A 27.4389,27.4389 0 1 0 5563.49,2728.95A 27.4389,27.4389 0 1 0 5508.61,2728.95Z " />
<path stroke="transparent" fill="#000000" transform="matrix(0.1 0 0 0.1 -4.9 -237.8)" d="M 1136.5,2897.3 L 1276.3,2859.9 L 1281.3,2878.9 L 1141.5,2916.3 Z " />
<path stroke="transparent" fill="#000000" transform="matrix(0.1 0 0 0.1 -4.9 -237.8)" d="M 1285.5,3108.7 L 1354.3,2935.5 L 1373.3,2942.5 L 1304.5,3115.7 Z " />
<text x="0" y="0" stroke="transparent" fill="#000000" transform="matrix(0.1 0 0 0.1 95.3 61.47)" style="font:normal normal bold 180px 'Inter'" >
H</text>
<text x="0" y="0" stroke="transparent" fill="#000000" transform="matrix(0.1 0 0 0.1 114.18 88.73)" style="font:normal normal bold 180px 'Inter'" >
H</text>
<text x="0" y="0" stroke="transparent" fill="#000000" transform="matrix(0.1 0 0 0.1 493.83 53.09)" style="font:normal normal bold 180px 'Inter'" >
C</text>
<text x="0" y="0" stroke="transparent" fill="#000000" transform="matrix(0.1 0 0 0.1 507.368 57.39)" style="font:normal normal bold 135px 'Inter'" >
10</text>
<path stroke="transparent" fill="#000000" transform="matrix(0.1 0 0 0.1 -4.9 -237.8)" d="M 4837.3,2910.1 L 4976.9,2872.7 L 4981.9,2891.7 L 4842.3,2929.1 Z " />
<path stroke="transparent" fill="#000000" transform="matrix(0.1 0 0 0.1 -4.9 -237.8)" d="M 4986.3,3121.3 L 5055.1,2948.3 L 5074.1,2955.3 L 5005.3,3128.3 Z " />
<text x="0" y="0" stroke="transparent" fill="#000000" transform="matrix(0.1 0 0 0.1 465.36 62.75)" style="font:normal normal bold 180px 'Inter'" >
H</text>
<text x="0" y="0" stroke="transparent" fill="#000000" transform="matrix(0.1 0 0 0.1 484.22 90.01)" style="font:normal normal bold 180px 'Inter'" >
H</text>
<path stroke="#000000" stroke-width="20" fill="transparent" transform="matrix(0.1 0 0 0.1 -4.9 -237.8)" d="M 4941.76,3075.17 C 4860.14,3053.26 4767.28,3096.52 4731.53,3173.09 " />
<path stroke="transparent" fill="#000000" transform="matrix(0.1 0 0 0.1 -4.9 -237.8)" d="M 4723.23,3305.52 C 4723.23,3305.52 4696.96,3151.44 4696.96,3151.44 C 4696.96,3151.44 4720.1,3181.02 4734.03,3182.59 C 4734.03,3182.59 4723.23,3305.52 4723.23,3305.52 C 4723.23,3305.52 4723.23,3305.52 4723.23,3305.52 " />
<path stroke="#000000" stroke-width="1" fill="transparent" transform="matrix(0.1 0 0 0.1 -4.9 -237.8)" d="M 4723.23,3305.52 C 4723.23,3305.52 4696.96,3151.44 4696.96,3151.44 C 4696.96,3151.44 4720.1,3181.02 4734.03,3182.59 C 4734.03,3182.59 4723.23,3305.52 4723.23,3305.52 C 4723.23,3305.52 4723.23,3305.52 4723.23,3305.52 " />
<path stroke="#000000" stroke-width="20" fill="transparent" transform="matrix(0.1 0 0 0.1 -4.9 -237.8)" d="M 5083.96,3079.2 C 5117.31,3079.31 5148.37,3053.43 5154.28,3020.6 " />
<path stroke="transparent" fill="#000000" transform="matrix(0.1 0 0 0.1 -4.9 -237.8)" d="M 5140.98,2964.11 C 5140.98,2964.11 5170.17,3024.09 5170.17,3024.09 C 5170.17,3024.09 5151.51,3011.59 5149.28,3012.1 C 5149.28,3012.1 5140.98,2964.11 5140.98,2964.11 C 5140.98,2964.11 5140.98,2964.11 5140.98,2964.11 " />
<path stroke="#000000" stroke-width="1" fill="transparent" transform="matrix(0.1 0 0 0.1 -4.9 -237.8)" d="M 5140.98,2964.11 C 5140.98,2964.11 5170.17,3024.09 5170.17,3024.09 C 5170.17,3024.09 5151.51,3011.59 5149.28,3012.1 C 5149.28,3012.1 5140.98,2964.11 5140.98,2964.11 C 5140.98,2964.11 5140.98,2964.11 5140.98,2964.11 " />
<text x="0" y="0" stroke="transparent" fill="#000000" transform="matrix(0.1 0 0 0.1 770.45 140.11)" style="font:normal normal bold 180px 'Inter'" >
Fe</text>
<text x="0" y="0" stroke="transparent" fill="#000000" transform="matrix(0.1 0 0 0.1 791.778 144.41)" style="font:normal normal bold 135px 'Inter'" >
A</text>
<text x="0" y="0" stroke="transparent" fill="#000000" transform="matrix(0.1 0 0 0.1 801.878 140.11)" style="font:normal normal bold 180px 'Inter'" >
(II)</text>
<path stroke="transparent" fill="#000000" transform="matrix(0.1 0 0 0.1 -4.9 -237.8)" d="M 7850.4,3475.6 L 7850.4,3622.4 L 7830.4,3622.4 L 7830.4,3475.6 Z " />
<path stroke="transparent" fill="#000000" transform="matrix(0.1 0 0 0.1 -4.9 -237.8)" d="M 7811,3789.4 L 7781,3933.2 L 7761,3929.2 L 7791,3785.4 Z " />
<path stroke="transparent" fill="#000000" transform="matrix(0.1 0 0 0.1 -4.9 -237.8)" d="M 7879.3,3786 L 7921.3,3926.6 L 7902.3,3932.6 L 7860.3,3792 Z " />
<path stroke="transparent" fill="#000000" transform="matrix(0.1 0 0 0.1 -4.9 -237.8)" d="M 7746.2,3747 L 7599.4,3748 L 7599.4,3728 L 7746.2,3727 Z " />
<path stroke="transparent" fill="#000000" transform="matrix(0.1 0 0 0.1 -4.9 -237.8)" d="M 7741.7,3667.2 L 7611.5,3599.4 L 7620.5,3581.4 L 7750.7,3649.2 Z " />
<path stroke="transparent" fill="#000000" transform="matrix(0.1 0 0 0.1 -4.9 -237.8)" d="M 8215.2,3500.7 L 7946.2,3656.1 L 7936.2,3639.1 L 8205.2,3483.7 Z " />
<text x="0" y="0" stroke="transparent" fill="#000000" transform="matrix(0.1 0 0 0.1 782.18 171.57)" style="font:normal normal bold 180px 'Inter'" >
N</text>
<text x="0" y="0" stroke="transparent" fill="#000000" transform="matrix(0.1 0 0 0.1 764.58 170.73)" style="font:normal normal bold 180px 'Inter'" >
N</text>
<text x="0" y="0" stroke="transparent" fill="#000000" transform="matrix(0.1 0 0 0.1 739.82 143.47)" style="font:normal normal bold 180px 'Inter'" >
N</text>
<text x="0" y="0" stroke="transparent" fill="#000000" transform="matrix(0.1 0 0 0.1 740.66 124.59)" style="font:normal normal bold 180px 'Inter'" >
N</text>
<text x="0" y="0" stroke="transparent" fill="#000000" transform="matrix(0.1 0 0 0.1 772.54 109.07)" style="font:normal normal bold 180px 'Inter'" >
N</text>
<text x="0" y="0" stroke="transparent" fill="#000000" transform="matrix(0.1 0 0 0.1 814.87 111.17)" style="font:normal normal bold 180px 'Inter'" >
OH</text>
<text x="0" y="0" stroke="transparent" fill="#000000" transform="matrix(0.1 0 0 0.1 842.4 115.47)" style="font:normal normal bold 135px 'Inter'" >
2</text>
<text x="0" y="0" stroke="transparent" fill="#000000" transform="matrix(0.1 0 0 0.1 955.81 144.73)" style="font:normal normal bold 180px 'Inter'" >
Fe</text>
<text x="0" y="0" stroke="transparent" fill="#000000" transform="matrix(0.1 0 0 0.1 977.138 149.03)" style="font:normal normal bold 135px 'Inter'" >
B</text>
<text x="0" y="0" stroke="transparent" fill="#000000" transform="matrix(0.1 0 0 0.1 986.059 144.73)" style="font:normal normal bold 180px 'Inter'" >
(III)</text>
<path stroke="transparent" fill="#000000" transform="matrix(0.1 0 0 0.1 -4.9 -237.8)" d="M 9898.8,3532.2 L 9764,3667.2 L 9750,3653.2 L 9884.8,3518.2 Z " />
<path stroke="transparent" fill="#000000" transform="matrix(0.1 0 0 0.1 -4.9 -237.8)" d="M 9548.4,3951.2 L 9641,3858.6 L 9655,3872.6 L 9562.4,3965.2 Z " />
<path stroke="transparent" fill="#000000" transform="matrix(0.1 0 0 0.1 -4.9 -237.8)" d="M 9836.2,3954.6 L 9762.6,3881 L 9776.6,3867 L 9850.2,3940.6 Z " />
<path stroke="transparent" fill="#000000" transform="matrix(0.1 0 0 0.1 -4.9 -237.8)" d="M 9530.9,3516.6 L 9622.9,3676 L 9605.9,3686 L 9513.9,3526.6 Z " />
<text x="0" y="0" stroke="transparent" fill="#000000" transform="matrix(0.1 0 0 0.1 931.38 112.43)" style="font:normal normal bold 180px 'Inter'" >
HO</text>
<text x="0" y="0" stroke="transparent" fill="#000000" transform="matrix(0.1 0 0 0.1 958.91 105.58)" style="font:normal normal bold 135px 'Inter'" >
1-</text>
<path stroke="#000000" stroke-width="20" fill="transparent" transform="matrix(0.1 0 0 0.1 -4.9 -237.8)" stroke-dasharray="54" d="M 9397,3723.2 L 9568.2,3769 " />
<text x="0" y="0" stroke="transparent" fill="#000000" transform="matrix(0.1 0 0 0.1 940.7 171.97)" style="font:normal normal bold 180px 'Inter'" >
N</text>
<text x="0" y="0" stroke="transparent" fill="#000000" transform="matrix(0.1 0 0 0.1 976.36 173.67)" style="font:normal normal bold 180px 'Inter'" >
N</text>
<text x="0" y="0" stroke="transparent" fill="#000000" transform="matrix(0.1 0 0 0.1 1014.62 144.29)" style="font:normal normal bold 180px 'Inter'" >
N</text>
<text x="0" y="0" stroke="transparent" fill="#000000" transform="matrix(0.1 0 0 0.1 985.16 116.21)" style="font:normal normal bold 180px 'Inter'" >
N</text>
<text x="0" y="0" stroke="transparent" fill="#000000" transform="matrix(0.1 0 0 0.1 895.5 136.75)" style="font:normal normal bold 180px 'Inter'" >
H</text>
<text x="0" y="0" stroke="transparent" fill="#000000" transform="matrix(0.1 0 0 0.1 908.93 141.05)" style="font:normal normal bold 135px 'Inter'" >
2</text>
<text x="0" y="0" stroke="transparent" fill="#000000" transform="matrix(0.1 0 0 0.1 917.434 136.75)" style="font:normal normal bold 180px 'Inter'" >
O</text>
<path stroke="#000000" stroke-width="20" fill="transparent" transform="matrix(0.1 0 0 0.1 -4.9 -237.8)" stroke-dasharray="54" d="M 8971.4,3638.2 L 8557.4,3527.4 " />
<text x="0" y="0" stroke="transparent" fill="#000000" transform="matrix(0.1 0 0 0.1 906.59 44.91)" style="font:normal normal bold 180px 'Inter'" >
C</text>
<text x="0" y="0" stroke="transparent" fill="#000000" transform="matrix(0.1 0 0 0.1 920.128 49.21)" style="font:normal normal bold 135px 'Inter'" >
9</text>
<text x="0" y="0" stroke="transparent" fill="#000000" transform="matrix(0.1 0 0 0.1 858.79 44.91)" style="font:normal normal bold 180px 'Inter'" >
C</text>
<text x="0" y="0" stroke="transparent" fill="#000000" transform="matrix(0.1 0 0 0.1 872.328 49.21)" style="font:normal normal bold 135px 'Inter'" >
10</text>
<path stroke="transparent" fill="#000000" transform="matrix(0.1 0 0 0.1 -4.9 -237.8)" d="M 5747.6,2711 L 5653.2,2805.4 L 5639.2,2791.4 L 5733.6,2697 Z " />
<path stroke="transparent" fill="#000000" transform="matrix(0.1 0 0 0.1 -4.9 -237.8)" d="M 5718.9,3046 L 5660.7,2983.8 L 5675.7,2969.8 L 5733.9,3032 Z " />
<text x="0" y="0" stroke="transparent" fill="#000000" transform="matrix(0.1 0 0 0.1 569.78 37.59)" style="font:normal normal bold 180px 'Inter'" >
H</text>
<text x="0" y="0" stroke="transparent" fill="#000000" transform="matrix(0.1 0 0 0.1 569.36 79.11)" style="font:normal normal bold 180px 'Inter'" >
H</text>
<path stroke="transparent" fill="#000000" transform="matrix(0.1 0 0 0.1 -4.9 -237.8)" d="M 9414.4,2575 L 9298.4,2690.8 L 9284.4,2676.8 L 9400.4,2561 Z " />
<text x="0" y="0" stroke="transparent" fill="#000000" transform="matrix(0.1 0 0 0.1 936.84 22.37)" style="font:normal normal bold 180px 'Inter'" >
H</text>
<path stroke="transparent" fill="#000000" transform="matrix(0.1 0 0 0.1 -4.9 -237.8)" d="M 8672,2864.4 L 8556.2,2980.2 L 8542.2,2966.2 L 8658,2850.4 Z " />
<path stroke="transparent" fill="#000000" transform="matrix(0.1 0 0 0.1 -4.9 -237.8)" d="M 9315.8,2884.2 L 9405.6,2974.8 L 9391.6,2988.8 L 9301.8,2898.2 Z " />
<path stroke="transparent" fill="#000000" transform="matrix(0.1 0 0 0.1 -4.9 -237.8)" d="M 8539.8,2569.2 L 8655,2685.6 L 8641,2699.6 L 8525.8,2583.2 Z " />
<text x="0" y="0" stroke="transparent" fill="#000000" transform="matrix(0.1 0 0 0.1 834.92 21.95)" style="font:normal normal bold 180px 'Inter'" >
H</text>
<text x="0" y="0" stroke="transparent" fill="#000000" transform="matrix(0.1 0 0 0.1 835.76 72.27)" style="font:normal normal bold 180px 'Inter'" >
H</text>
<text x="0" y="0" stroke="transparent" fill="#000000" transform="matrix(0.1 0 0 0.1 935.56 71.01)" style="font:normal normal bold 180px 'Inter'" >
H</text>
<path stroke="transparent" fill="#000000" transform="matrix(0.1 0 0 0.1 -4.9 -237.8)" d="M 9071.4,2755 L 8938.8,2755 L 8938.8,2735 L 9071.4,2735 Z " />
<path stroke="transparent" fill="#000000" transform="matrix(0.1 0 0 0.1 -4.9 -237.8)" d="M 9076.4,2795 L 8943.8,2795 L 8943.8,2775 L 9076.4,2775 Z " />
<path stroke="transparent" fill="#000000" transform="matrix(0.1 0 0 0.1 -4.9 -237.8)" d="M 3543,3300 L 2957,3300 L 2957,3280 L 3543,3280 Z " />
<path stroke="transparent" fill="#000000" transform="matrix(0.1 0 0 0.1 -4.9 -237.8)" d="M 3717,3290 C 3717,3290 3517,3341 3517,3341 C 3517,3341 3542,3312.31 3542,3290 C 3542,3267.25 3517,3238 3517,3238 C 3517,3238 3717,3290 3717,3290 C 3717,3290 3717,3290 3717,3290 " />
<path stroke="#000000" stroke-width="1" fill="transparent" transform="matrix(0.1 0 0 0.1 -4.9 -237.8)" d="M 3717,3290 C 3717,3290 3517,3341 3517,3341 C 3517,3341 3542,3312.31 3542,3290 C 3542,3267.25 3517,3238 3517,3238 C 3517,3238 3717,3290 3717,3290 C 3717,3290 3717,3290 3717,3290 " />
<path stroke="transparent" fill="#000000" transform="matrix(0.1 0 0 0.1 -4.9 -237.8)" d="M 7153,3310 L 6567,3310 L 6567,3290 L 7153,3290 Z " />
<path stroke="transparent" fill="#000000" transform="matrix(0.1 0 0 0.1 -4.9 -237.8)" d="M 7327,3300 C 7327,3300 7127,3351 7127,3351 C 7127,3351 7152,3322.31 7152,3300 C 7152,3277.25 7127,3248 7127,3248 C 7127,3248 7327,3300 7327,3300 C 7327,3300 7327,3300 7327,3300 " />
<path stroke="#000000" stroke-width="1" fill="transparent" transform="matrix(0.1 0 0 0.1 -4.9 -237.8)" d="M 7327,3300 C 7327,3300 7127,3351 7127,3351 C 7127,3351 7152,3322.31 7152,3300 C 7152,3277.25 7127,3248 7127,3248 C 7127,3248 7327,3300 7327,3300 C 7327,3300 7327,3300 7327,3300 " />
<text x="0" y="0" stroke="transparent" fill="#000000" transform="matrix(0.1 0 0 0.1 104.3 224.86)" style="font:normal normal bold 240px 'Inter'" >
Int4</text>
<text x="0" y="0" stroke="transparent" fill="#000000" transform="matrix(0.1 0 0 0.1 151.58 230.66)" style="font:normal normal bold 180px 'Inter'" >
A-α</text>
<text x="0" y="0" stroke="transparent" fill="#000000" transform="matrix(0.1 0 0 0.1 480.3 222.2)" style="font:normal normal bold 240px 'Inter'" >
Int5</text>
<text x="0" y="0" stroke="transparent" fill="#000000" transform="matrix(0.1 0 0 0.1 526.78 228)" style="font:normal normal bold 180px 'Inter'" >
A-α</text>
<text x="0" y="0" stroke="transparent" fill="#000000" transform="matrix(0.1 0 0 0.1 862.96 220.86)" style="font:normal normal bold 240px 'Inter'" >
Int6</text>
<text x="0" y="0" stroke="transparent" fill="#000000" transform="matrix(0.1 0 0 0.1 909.784 226.66)" style="font:normal normal bold 180px 'Inter'" >
A-α</text>
</svg>
