<?xml version="1.0" standalone="no" ?>
<!DOCTYPE svg PUBLIC "-//W3C//DTD SVG 1.1//EN" "http://www.w3.org/Graphics/SVG/1.1/DTD/svg11.dtd">
<svg width="809px" height="325px" viewBox="0 0 809 325" style="background-color: #ffffff00" xmlns="http://www.w3.org/2000/svg" xmlns:xlink="http://www.w3.org/1999/xlink" version="1.1" >
<text x="0" y="0" stroke="transparent" fill="#000000" transform="matrix(0.1 0 0 0.1 48.0688 206.3)" style="font:normal normal bold 200px 'Inter'" >
Fe</text>
<text x="0" y="0" stroke="transparent" fill="#000000" transform="matrix(0.1 0 0 0.1 71.7688 211.1)" style="font:normal normal bold 150px 'Inter'" >
A</text>
<text x="0" y="0" stroke="transparent" fill="#000000" transform="matrix(0.1 0 0 0.1 82.9869 198.7)" style="font:normal normal bold 150px 'Inter'" >
III</text>
<text x="0" y="0" stroke="transparent" fill="#000000" transform="matrix(0.1 0 0 0.1 64.49 146.3)" style="font:normal normal bold 200px 'Inter'" >
N</text>
<path stroke="transparent" fill="#000000" transform="matrix(0.1 0 0 0.1 -118 -76)" d="M 1888.4,2261.83 L 1908.4,2261.83 L 1908.4,2672.5 L 1888.4,2672.5 L 1888.4,2261.83 Z " />
<text x="0" y="0" stroke="transparent" fill="#000000" transform="matrix(0.1 0 0 0.1 64.49 266.3)" style="font:normal normal bold 200px 'Inter'" >
N</text>
<path stroke="transparent" fill="#000000" transform="matrix(0.1 0 0 0.1 -118 -76)" d="M 1908.4,3237.83 L 1888.4,3237.83 L 1888.4,2910.5 L 1908.4,2910.5 L 1908.4,3237.83 Z " />
<text x="0" y="0" stroke="transparent" fill="#000000" transform="matrix(0.1 0 0 0.1 4.49 206.3)" style="font:normal normal bold 200px 'Inter'" >
N</text>
<path stroke="transparent" fill="#000000" transform="matrix(0.1 0 0 0.1 -118 -76)" d="M 1398.9,2757 L 1398.9,2737 L 1633.69,2737 L 1633.69,2757 L 1398.9,2757 Z " />
<text x="0" y="0" stroke="transparent" fill="#000000" transform="matrix(0.1 0 0 0.1 130.16 206.3)" style="font:normal normal bold 200px 'Inter'" >
O</text>
<text x="0" y="0" stroke="transparent" fill="#000000" transform="matrix(0.1 0 0 0.1 145.799 211.1)" style="font:normal normal bold 150px 'Inter'" >
A</text>
<path stroke="transparent" fill="#000000" transform="matrix(0.1 0 0 0.1 -118 -76)" d="M 2452.6,2737 L 2452.6,2757 L 2165.69,2757 L 2165.69,2737 L 2452.6,2737 Z " />
<text x="0" y="0" stroke="transparent" fill="#000000" transform="matrix(0.1 0 0 0.1 12.53 236.3)" style="font:normal normal bold 200px 'Inter'" >
N</text>
<path stroke="transparent" fill="#000000" transform="matrix(0.1 0 0 0.1 -118 -76)" d="M 1483.78,2967.81 L 1470.56,2952.8 L 1619.51,2821.52 L 1632.73,2836.53 L 1483.78,2967.81 Z " />
<text x="0" y="0" stroke="transparent" fill="#000000" transform="matrix(0.1 0 0 0.1 116.47 176.3)" style="font:normal normal bold 200px 'Inter'" >
N</text>
<path stroke="transparent" fill="#000000" transform="matrix(0.1 0 0 0.1 -118 -76)" d="M 2300.78,2503.22 L 2310.77,2520.55 L 2155.51,2610.15 L 2145.52,2592.83 L 2300.78,2503.22 Z " />
<text x="0" y="0" stroke="transparent" fill="#000000" transform="matrix(0.1 0 0 0.1 265.82 208.8)" style="font:normal normal bold 200px 'Inter'" >
Fe</text>
<text x="0" y="0" stroke="transparent" fill="#000000" transform="matrix(0.1 0 0 0.1 289.52 213.6)" style="font:normal normal bold 150px 'Inter'" >
B</text>
<text x="0" y="0" stroke="transparent" fill="#000000" transform="matrix(0.1 0 0 0.1 299.433 201.2)" style="font:normal normal bold 150px 'Inter'" >
IV</text>
<text x="0" y="0" stroke="transparent" fill="#000000" transform="matrix(0.1 0 0 0.1 282.54 148.8)" style="font:normal normal bold 200px 'Inter'" >
O</text>
<text x="0" y="0" stroke="transparent" fill="#000000" transform="matrix(0.1 0 0 0.1 298.179 153.6)" style="font:normal normal bold 150px 'Inter'" >
B</text>
<path stroke="transparent" fill="#000000" transform="matrix(0.1 0 0 0.1 -118 -76)" d="M 4037.4,2335.67 L 4057.4,2335.67 L 4057.4,2697.5 L 4037.4,2697.5 L 4037.4,2335.67 Z " />
<path stroke="transparent" fill="#000000" transform="matrix(0.1 0 0 0.1 -118 -76)" d="M 4109.4,2335.67 L 4129.4,2335.67 L 4129.4,2697.5 L 4109.4,2697.5 L 4109.4,2335.67 Z " />
<text x="0" y="0" stroke="transparent" fill="#000000" transform="matrix(0.1 0 0 0.1 282.99 268.8)" style="font:normal normal bold 200px 'Inter'" >
N</text>
<path stroke="transparent" fill="#000000" transform="matrix(0.1 0 0 0.1 -118 -76)" d="M 4093.4,3262.83 L 4073.4,3262.83 L 4073.4,2935.5 L 4093.4,2935.5 L 4093.4,3262.83 Z " />
<text x="0" y="0" stroke="transparent" fill="#000000" transform="matrix(0.1 0 0 0.1 198.129 208.8)" style="font:normal normal bold 200px 'Inter'" >
H</text>
<text x="0" y="0" stroke="transparent" fill="#000000" transform="matrix(0.1 0 0 0.1 213.051 213.6)" style="font:normal normal bold 150px 'Inter'" >
2</text>
<text x="0" y="0" stroke="transparent" fill="#000000" transform="matrix(0.1 0 0 0.1 222.501 208.8)" style="font:normal normal bold 200px 'Inter'" >
O</text>
<path stroke="transparent" fill="#000000" transform="matrix(0.1 0 0 0.1 -118 -76)" d="M 3591.29,2782 L 3591.29,2762 L 3811.2,2762 L 3811.2,2782 L 3591.29,2782 Z " />
<text x="0" y="0" stroke="transparent" fill="#000000" transform="matrix(0.1 0 0 0.1 349.11 208.8)" style="font:normal normal bold 200px 'Inter'" >
N</text>
<path stroke="transparent" fill="#000000" transform="matrix(0.1 0 0 0.1 -118 -76)" d="M 4644.1,2762 L 4644.1,2782 L 4364.2,2782 L 4364.2,2762 L 4644.1,2762 Z " />
<text x="0" y="0" stroke="transparent" fill="#000000" transform="matrix(0.1 0 0 0.1 231.03 238.8)" style="font:normal normal bold 200px 'Inter'" >
N</text>
<path stroke="transparent" fill="#000000" transform="matrix(0.1 0 0 0.1 -118 -76)" d="M 3667.99,2991.57 L 3654.6,2976.71 L 3797.64,2847.81 L 3811.03,2862.67 L 3667.99,2991.57 Z " />
<text x="0" y="0" stroke="transparent" fill="#000000" transform="matrix(0.1 0 0 0.1 334.97 178.8)" style="font:normal normal bold 200px 'Inter'" >
N</text>
<path stroke="transparent" fill="#000000" transform="matrix(0.1 0 0 0.1 -118 -76)" d="M 4485.78,2528.22 L 4495.77,2545.55 L 4350.65,2629.3 L 4340.65,2611.98 L 4485.78,2528.22 Z " />
<text x="0" y="0" stroke="transparent" fill="#000000" transform="matrix(0.1 0 0 0.1 135.57 240.74)" style="font:normal normal bold 200px 'Inter'" >
H</text>
<path stroke="transparent" fill="#000000" transform="matrix(0.1 0 0 0.1 -118 -76)" d="M 2596.93,2971.99 L 2577.31,2975.85 L 2556.19,2868.33 L 2575.81,2864.47 L 2596.93,2971.99 Z " />
<path stroke="transparent" fill="#000000" transform="matrix(0.1 0 0 0.1 -118 -76)" d="M 3084.29,2754.8 L 3084.11,2774.8 L 3034.48,2774.34 L 3034.66,2754.34 L 3084.29,2754.8 Z " />
<path stroke="transparent" fill="#000000" transform="matrix(0.1 0 0 0.1 -118 -76)" d="M 2985.03,2753.89 L 2984.85,2773.89 L 2935.22,2773.43 L 2935.41,2753.43 L 2985.03,2753.89 Z " />
<path stroke="transparent" fill="#000000" transform="matrix(0.1 0 0 0.1 -118 -76)" d="M 2885.78,2752.97 L 2885.59,2772.97 L 2835.96,2772.51 L 2836.15,2752.51 L 2885.78,2752.97 Z " />
<path stroke="transparent" fill="#000000" transform="matrix(0.1 0 0 0.1 -118 -76)" d="M 2786.52,2752.06 L 2786.34,2772.06 L 2736.71,2771.6 L 2736.89,2751.6 L 2786.52,2752.06 Z " />
<text x="0" y="0" stroke="transparent" fill="#000000" transform="matrix(0.1 0 0 0.1 150.16 57.44)" style="font:normal normal bold 200px 'Inter'" >
C</text>
<text x="0" y="0" stroke="transparent" fill="#000000" transform="matrix(0.1 0 0 0.1 165.203 62.24)" style="font:normal normal bold 150px 'Inter'" >
10</text>
<text x="0" y="0" stroke="transparent" fill="#000000" transform="matrix(0.1 0 0 0.1 210.16 57.44)" style="font:normal normal bold 200px 'Inter'" >
C</text>
<text x="0" y="0" stroke="transparent" fill="#000000" transform="matrix(0.1 0 0 0.1 225.203 62.24)" style="font:normal normal bold 150px 'Inter'" >
9</text>
<path stroke="transparent" fill="#000000" transform="matrix(0.1 0 0 0.1 -118 -76)" d="M 3252.6,1248.4 L 3252.6,1268.4 L 3040.6,1268.4 L 3040.6,1248.4 L 3252.6,1248.4 Z " />
<path stroke="transparent" fill="#000000" transform="matrix(0.1 0 0 0.1 -118 -76)" d="M 3871.2,949.74 L 3881.2,967.06 L 3702.01,1070.52 L 3692.01,1053.2 L 3871.2,949.74 L 3871.2,949.74 Z " />
<path stroke="transparent" fill="#000000" transform="matrix(0.1 0 0 0.1 -118 -76)" d="M 3458.39,1211.18 L 3448.39,1193.86 L 3553.45,1133.2 L 3563.45,1150.52 L 3458.39,1211.18 L 3458.39,1211.18 Z " />
<path stroke="transparent" fill="#000000" transform="matrix(0.1 0 0 0.1 -118 -76)" d="M 2232,967.06 L 2242,949.74 L 2414.75,1049.48 L 2404.56,1066.69 L 2232,967.06 L 2232,967.06 Z " />
<path stroke="transparent" fill="#000000" transform="matrix(0.1 0 0 0.1 -118 -76)" d="M 2668.99,1196.27 L 2658.99,1213.59 L 2543.13,1146.7 L 2553.32,1129.49 L 2668.99,1196.27 L 2668.99,1196.27 Z " />
<path stroke="#000000" stroke-width="20" fill="transparent" transform="matrix(0.1 0 0 0.1 -118 -76)" d="M 2336.6,1338.4 C 2355.6,1349.65 2379.55,1344.38 2390.06,1326.63 C 2400.57,1308.88 2393.69,1285.34 2374.69,1274.09 C 2355.7,1262.84 2348.81,1239.3 2359.32,1221.55 C 2369.84,1203.8 2393.79,1198.53 2412.78,1209.78 C 2431.78,1221.03 2455.73,1215.76 2466.25,1198.01 C 2476.76,1180.26 2469.87,1156.72 2450.88,1145.47 C 2431.88,1134.22 2425,1110.68 2435.51,1092.93 C 2446.02,1075.18 2469.97,1069.9 2488.97,1081.16 C 2507.97,1092.41 2531.92,1087.13 2542.43,1069.39 C 2552.95,1051.64 2546.06,1028.1 2527.06,1016.85 C 2508.07,1005.59 2501.18,982.054 2511.69,964.305 C 2522.21,946.556 2546.16,941.283 2565.16,952.535 C 2584.15,963.787 2608.1,958.513 2618.62,940.764 C 2629.13,923.015 2622.24,899.476 2603.25,888.224 C 2584.25,876.972 2577.37,853.432 2587.88,835.683 " />
<path stroke="#000000" stroke-width="20" fill="transparent" transform="matrix(0.1 0 0 0.1 -118 -76)" d="M 3501.6,883.4 C 3482.48,894.44 3475.36,917.95 3485.71,935.876 C 3496.06,953.802 3519.98,959.391 3539.1,948.351 C 3558.22,937.312 3582.14,942.901 3592.49,960.827 C 3602.84,978.752 3595.72,1002.26 3576.6,1013.3 C 3557.48,1024.34 3550.36,1047.85 3560.71,1065.78 C 3571.06,1083.7 3594.98,1089.29 3614.1,1078.25 C 3633.22,1067.21 3657.14,1072.8 3667.49,1090.73 C 3677.84,1108.65 3670.72,1132.17 3651.6,1143.21 C 3632.48,1154.24 3625.36,1177.76 3635.71,1195.68 C 3646.06,1213.61 3669.98,1219.2 3689.1,1208.16 C 3708.22,1197.12 3732.15,1202.71 3742.49,1220.63 C 3752.84,1238.56 3745.73,1262.07 3726.6,1273.11 C 3707.48,1284.15 3700.36,1307.66 3710.71,1325.58 C 3721.06,1343.51 3744.98,1349.1 3764.11,1338.06 C 3783.23,1327.02 3807.15,1332.61 3817.5,1350.53 " />
<text x="0" y="0" stroke="transparent" fill="#000000" transform="matrix(0.1 0 0 0.1 225.75 115.38)" style="font:normal normal bold 200px 'Inter'" >
H</text>
<text x="0" y="0" stroke="transparent" fill="#000000" transform="matrix(0.1 0 0 0.1 240.672 120.18)" style="font:normal normal bold 150px 'Inter'" >
9</text>
<path stroke="transparent" fill="#000000" transform="matrix(0.1 0 0 0.1 -118 -76)" d="M 3538.16,1703.71 L 3422.25,1734.8 L 3377.65,1375.47 L 3396.96,1370.29 L 3538.16,1703.71 Z " />
<text x="0" y="0" stroke="transparent" fill="#000000" transform="matrix(0.1 0 0 0.1 134.605 115.38)" style="font:normal normal bold 200px 'Inter'" >
H</text>
<text x="0" y="0" stroke="transparent" fill="#000000" transform="matrix(0.1 0 0 0.1 149.527 120.18)" style="font:normal normal bold 150px 'Inter'" >
10</text>
<path stroke="transparent" fill="#000000" transform="matrix(0.1 0 0 0.1 -118 -76)" d="M 2691.05,1734.99 L 2575.14,1703.94 L 2716.67,1368.8 L 2735.99,1373.98 L 2691.05,1734.99 Z " />
<text x="0" y="0" stroke="transparent" fill="#000000" transform="matrix(0.1 0 0 0.1 262.17 87.44)" style="font:normal normal bold 200px 'Inter'" >
H</text>
<path stroke="transparent" fill="#000000" transform="matrix(0.1 0 0 0.1 -118 -76)" d="M 3795.49,1442.52 L 3735.48,1546.44 L 3720.23,1532.86 L 3776.1,1436.09 L 3795.49,1442.52 Z " />
<path stroke="transparent" fill="#000000" transform="matrix(0.1 0 0 0.1 -118 -76)" d="M 3741.61,1424.65 L 3693.08,1508.71 L 3677.82,1495.14 L 3722.23,1418.23 L 3741.61,1424.65 Z " />
<path stroke="transparent" fill="#000000" transform="matrix(0.1 0 0 0.1 -118 -76)" d="M 3687.74,1406.79 L 3650.68,1470.99 L 3635.42,1457.41 L 3668.36,1400.37 L 3687.74,1406.79 Z " />
<path stroke="transparent" fill="#000000" transform="matrix(0.1 0 0 0.1 -118 -76)" d="M 3633.87,1388.93 L 3608.27,1433.26 L 3593.01,1419.69 L 3614.48,1382.5 L 3633.87,1388.93 Z " />
<path stroke="transparent" fill="#000000" transform="matrix(0.1 0 0 0.1 -118 -76)" d="M 3579.99,1371.07 L 3565.87,1395.54 L 3550.61,1381.96 L 3560.61,1364.64 L 3579.99,1371.07 Z " />
<text x="0" y="0" stroke="transparent" fill="#000000" transform="matrix(0.1 0 0 0.1 98.25 87.44)" style="font:normal normal bold 200px 'Inter'" >
H</text>
<path stroke="transparent" fill="#000000" transform="matrix(0.1 0 0 0.1 -118 -76)" d="M 2377.72,1546.44 L 2317.71,1442.52 L 2336.42,1434.91 L 2393.66,1534.05 L 2377.72,1546.44 Z " />
<path stroke="transparent" fill="#000000" transform="matrix(0.1 0 0 0.1 -118 -76)" d="M 2423.15,1511.12 L 2371.02,1420.83 L 2389.72,1413.22 L 2439.09,1498.72 L 2423.15,1511.12 Z " />
<path stroke="transparent" fill="#000000" transform="matrix(0.1 0 0 0.1 -118 -76)" d="M 2468.58,1475.79 L 2424.33,1399.14 L 2443.03,1391.53 L 2484.52,1463.4 L 2468.58,1475.79 Z " />
<path stroke="transparent" fill="#000000" transform="matrix(0.1 0 0 0.1 -118 -76)" d="M 2514.01,1440.47 L 2477.63,1377.46 L 2496.33,1369.85 L 2529.95,1428.08 L 2514.01,1440.47 Z " />
<path stroke="transparent" fill="#000000" transform="matrix(0.1 0 0 0.1 -118 -76)" d="M 2559.45,1405.15 L 2530.94,1355.77 L 2549.64,1348.16 L 2575.39,1392.76 L 2559.45,1405.15 Z " />
<path stroke="transparent" fill="#000000" transform="matrix(0.1 0 0 0.1 -118 -76)" d="M 2604.88,1369.83 L 2584.24,1334.08 L 2602.95,1326.48 L 2620.82,1357.43 L 2604.88,1369.83 Z " />
<path stroke="transparent" fill="#000000" transform="matrix(0.1 0 0 0.1 -118 -76)" d="M 2650.31,1334.5 L 2637.55,1312.4 L 2656.25,1304.79 L 2666.25,1322.11 L 2650.31,1334.5 Z " />
<text x="0" y="0" stroke="transparent" fill="#000000" transform="matrix(0.1 0 0 0.1 483.33 204.96)" style="font:normal normal bold 200px 'Inter'" >
Fe</text>
<text x="0" y="0" stroke="transparent" fill="#000000" transform="matrix(0.1 0 0 0.1 507.03 209.76)" style="font:normal normal bold 150px 'Inter'" >
A</text>
<text x="0" y="0" stroke="transparent" fill="#000000" transform="matrix(0.1 0 0 0.1 518.248 197.36)" style="font:normal normal bold 150px 'Inter'" >
III</text>
<text x="0" y="0" stroke="transparent" fill="#000000" transform="matrix(0.1 0 0 0.1 481.83 144.96)" style="font:normal normal bold 200px 'Inter'" >
N</text>
<path stroke="transparent" fill="#000000" transform="matrix(0.1 0 0 0.1 -118 -76)" d="M 6061.8,2248.43 L 6081.8,2248.43 L 6081.8,2624.1 L 6061.8,2624.1 L 6061.8,2248.43 Z " />
<text x="0" y="0" stroke="transparent" fill="#000000" transform="matrix(0.1 0 0 0.1 481.83 264.96)" style="font:normal normal bold 200px 'Inter'" >
N</text>
<path stroke="transparent" fill="#000000" transform="matrix(0.1 0 0 0.1 -118 -76)" d="M 6081.8,3224.43 L 6061.8,3224.43 L 6061.8,2849.1 L 6081.8,2849.1 L 6081.8,3224.43 Z " />
<text x="0" y="0" stroke="transparent" fill="#000000" transform="matrix(0.1 0 0 0.1 421.83 204.96)" style="font:normal normal bold 200px 'Inter'" >
N</text>
<path stroke="transparent" fill="#000000" transform="matrix(0.1 0 0 0.1 -118 -76)" d="M 5572.3,2743.6 L 5572.3,2723.6 L 5986.3,2723.6 L 5986.3,2739.82 L 5979.98,2728.88 L 5954.48,2743.6 L 5572.3,2743.6 L 5572.3,2743.6 Z " />
<text x="0" y="0" stroke="transparent" fill="#000000" transform="matrix(0.1 0 0 0.1 547.5 204.96)" style="font:normal normal bold 200px 'Inter'" >
O</text>
<text x="0" y="0" stroke="transparent" fill="#000000" transform="matrix(0.1 0 0 0.1 563.139 209.76)" style="font:normal normal bold 150px 'Inter'" >
A</text>
<text x="0" y="0" stroke="transparent" fill="#000000" transform="matrix(0.1 0 0 0.1 574.357 204.96)" style="font:normal normal bold 200px 'Inter'" >
H</text>
<path stroke="transparent" fill="#000000" transform="matrix(0.1 0 0 0.1 -118 -76)" d="M 6626,2723.6 L 6626,2743.6 L 6518.3,2743.6 L 6518.3,2723.6 L 6626,2723.6 Z " />
<text x="0" y="0" stroke="transparent" fill="#000000" transform="matrix(0.1 0 0 0.1 429.87 234.96)" style="font:normal normal bold 200px 'Inter'" >
N</text>
<path stroke="transparent" fill="#000000" transform="matrix(0.1 0 0 0.1 -118 -76)" d="M 5667.17,2978.77 L 5657.17,2961.45 L 5965.34,2783.52 L 5975.34,2800.84 L 5667.17,2978.77 Z " />
<text x="0" y="0" stroke="transparent" fill="#000000" transform="matrix(0.1 0 0 0.1 533.79 174.96)" style="font:normal normal bold 200px 'Inter'" >
N</text>
<path stroke="transparent" fill="#000000" transform="matrix(0.1 0 0 0.1 -118 -76)" d="M 6473.98,2489.85 L 6483.98,2507.17 L 6228.61,2654.61 L 6218.61,2637.29 L 6473.98,2489.85 Z " />
<text x="0" y="0" stroke="transparent" fill="#000000" transform="matrix(0.1 0 0 0.1 706.5 207.46)" style="font:normal normal bold 200px 'Inter'" >
Fe</text>
<text x="0" y="0" stroke="transparent" fill="#000000" transform="matrix(0.1 0 0 0.1 730.2 212.26)" style="font:normal normal bold 150px 'Inter'" >
B</text>
<text x="0" y="0" stroke="transparent" fill="#000000" transform="matrix(0.1 0 0 0.1 740.113 199.86)" style="font:normal normal bold 150px 'Inter'" >
IV</text>
<text x="0" y="0" stroke="transparent" fill="#000000" transform="matrix(0.1 0 0 0.1 723.22 147.46)" style="font:normal normal bold 200px 'Inter'" >
OH</text>
<text x="0" y="0" stroke="transparent" fill="#000000" transform="matrix(0.1 0 0 0.1 753.781 152.26)" style="font:normal normal bold 150px 'Inter'" >
2</text>
<path stroke="transparent" fill="#000000" transform="matrix(0.1 0 0 0.1 -118 -76)" d="M 8480.2,2276.27 L 8500.2,2276.27 L 8500.2,2684.1 L 8480.2,2684.1 L 8480.2,2276.27 Z " />
<text x="0" y="0" stroke="transparent" fill="#000000" transform="matrix(0.1 0 0 0.1 723.67 267.46)" style="font:normal normal bold 200px 'Inter'" >
N</text>
<path stroke="transparent" fill="#000000" transform="matrix(0.1 0 0 0.1 -118 -76)" d="M 8500.2,3249.43 L 8480.2,3249.43 L 8480.2,2922.1 L 8500.2,2922.1 L 8500.2,3249.43 Z " />
<text x="0" y="0" stroke="transparent" fill="#000000" transform="matrix(0.1 0 0 0.1 650.418 207.46)" style="font:normal normal bold 200px 'Inter'" >
O</text>
<text x="0" y="0" stroke="transparent" fill="#000000" transform="matrix(0.1 0 0 0.1 666.057 212.26)" style="font:normal normal bold 150px 'Inter'" >
B</text>
<path stroke="transparent" fill="#000000" transform="matrix(0.1 0 0 0.1 -118 -76)" d="M 7974.18,2804.6 L 7974.18,2784.6 L 8199.96,2784.6 L 8177.77,2804.6 L 7974.18,2804.6 L 7974.18,2804.6 Z " />
<path stroke="transparent" fill="#000000" transform="matrix(0.1 0 0 0.1 -118 -76)" d="M 8218,2784.6 L 8218,2789.71 L 8213.4,2784.6 L 8218,2784.6 L 8218,2784.6 Z " />
<path stroke="transparent" fill="#000000" transform="matrix(0.1 0 0 0.1 -118 -76)" d="M 7974.18,2732.6 L 7974.18,2712.6 L 8218,2712.6 L 8218,2732.6 L 7974.18,2732.6 L 7974.18,2732.6 Z " />
<text x="0" y="0" stroke="transparent" fill="#000000" transform="matrix(0.1 0 0 0.1 789.77 207.46)" style="font:normal normal bold 200px 'Inter'" >
N</text>
<path stroke="transparent" fill="#000000" transform="matrix(0.1 0 0 0.1 -118 -76)" d="M 9050.7,2748.6 L 9050.7,2768.6 L 8771,2768.6 L 8771,2748.6 L 9050.7,2748.6 Z " />
<text x="0" y="0" stroke="transparent" fill="#000000" transform="matrix(0.1 0 0 0.1 671.71 237.46)" style="font:normal normal bold 200px 'Inter'" >
N</text>
<path stroke="transparent" fill="#000000" transform="matrix(0.1 0 0 0.1 -118 -76)" d="M 8074.79,2978.17 L 8061.4,2963.31 L 8204.44,2834.41 L 8217.83,2849.27 L 8074.79,2978.17 Z " />
<text x="0" y="0" stroke="transparent" fill="#000000" transform="matrix(0.1 0 0 0.1 775.63 177.46)" style="font:normal normal bold 200px 'Inter'" >
N</text>
<path stroke="transparent" fill="#000000" transform="matrix(0.1 0 0 0.1 -118 -76)" d="M 8892.38,2514.85 L 8902.38,2532.17 L 8757.42,2615.86 L 8747.42,2598.54 L 8892.38,2514.85 Z " />
<path stroke="transparent" fill="#000000" transform="matrix(0.1 0 0 0.1 -118 -76)" d="M 7537.49,2741.4 L 7537.31,2761.4 L 7487.68,2760.94 L 7487.86,2740.94 L 7537.49,2741.4 Z " />
<path stroke="transparent" fill="#000000" transform="matrix(0.1 0 0 0.1 -118 -76)" d="M 7438.23,2740.49 L 7438.05,2760.49 L 7388.42,2760.03 L 7388.61,2740.03 L 7438.23,2740.49 Z " />
<path stroke="transparent" fill="#000000" transform="matrix(0.1 0 0 0.1 -118 -76)" d="M 7338.98,2739.57 L 7338.79,2759.57 L 7289.17,2759.11 L 7289.35,2739.11 L 7338.98,2739.57 Z " />
<path stroke="transparent" fill="#000000" transform="matrix(0.1 0 0 0.1 -118 -76)" d="M 7239.72,2738.66 L 7239.54,2758.66 L 7189.91,2758.2 L 7190.09,2738.2 L 7239.72,2738.66 Z " />
<text x="0" y="0" stroke="transparent" fill="#000000" transform="matrix(0.1 0 0 0.1 580.84 58.1)" style="font:normal normal bold 200px 'Inter'" >
C</text>
<text x="0" y="0" stroke="transparent" fill="#000000" transform="matrix(0.1 0 0 0.1 595.883 62.9)" style="font:normal normal bold 150px 'Inter'" >
10</text>
<text x="0" y="0" stroke="transparent" fill="#000000" transform="matrix(0.1 0 0 0.1 640.84 58.1)" style="font:normal normal bold 200px 'Inter'" >
C</text>
<text x="0" y="0" stroke="transparent" fill="#000000" transform="matrix(0.1 0 0 0.1 655.883 62.9)" style="font:normal normal bold 150px 'Inter'" >
9</text>
<path stroke="transparent" fill="#000000" transform="matrix(0.1 0 0 0.1 -118 -76)" d="M 7559.4,1255 L 7559.4,1275 L 7347.4,1275 L 7347.4,1255 L 7559.4,1255 Z " />
<path stroke="transparent" fill="#000000" transform="matrix(0.1 0 0 0.1 -118 -76)" d="M 8178,956.34 L 8188,973.66 L 8008.81,1077.12 L 7998.81,1059.8 L 8178,956.34 L 8178,956.34 Z " />
<path stroke="transparent" fill="#000000" transform="matrix(0.1 0 0 0.1 -118 -76)" d="M 7765.19,1217.78 L 7755.19,1200.46 L 7860.25,1139.8 L 7870.25,1157.12 L 7765.19,1217.78 L 7765.19,1217.78 Z " />
<path stroke="transparent" fill="#000000" transform="matrix(0.1 0 0 0.1 -118 -76)" d="M 6538.8,973.66 L 6548.8,956.34 L 6721.55,1056.08 L 6711.36,1073.29 L 6538.8,973.66 L 6538.8,973.66 Z " />
<path stroke="transparent" fill="#000000" transform="matrix(0.1 0 0 0.1 -118 -76)" d="M 6975.79,1202.87 L 6965.79,1220.19 L 6849.93,1153.3 L 6860.12,1136.09 L 6975.79,1202.87 L 6975.79,1202.87 Z " />
<path stroke="#000000" stroke-width="20" fill="transparent" transform="matrix(0.1 0 0 0.1 -118 -76)" d="M 6643.4,1345 C 6662.4,1356.25 6686.35,1350.98 6696.86,1333.23 C 6707.38,1315.48 6700.49,1291.94 6681.49,1280.69 C 6662.5,1269.44 6655.61,1245.9 6666.12,1228.15 C 6676.64,1210.4 6700.59,1205.13 6719.59,1216.38 C 6738.58,1227.63 6762.53,1222.36 6773.05,1204.61 C 6783.56,1186.86 6776.67,1163.32 6757.68,1152.07 C 6738.68,1140.82 6731.8,1117.28 6742.31,1099.53 C 6752.82,1081.78 6776.77,1076.5 6795.77,1087.76 C 6814.77,1099.01 6838.72,1093.73 6849.23,1075.99 C 6859.75,1058.24 6852.86,1034.7 6833.86,1023.45 C 6814.87,1012.19 6807.98,988.654 6818.49,970.905 C 6829.01,953.156 6852.96,947.883 6871.96,959.135 C 6890.95,970.387 6914.9,965.113 6925.42,947.364 C 6935.93,929.615 6929.04,906.076 6910.05,894.824 C 6891.05,883.572 6884.17,860.032 6894.68,842.283 " />
<path stroke="#000000" stroke-width="20" fill="transparent" transform="matrix(0.1 0 0 0.1 -118 -76)" d="M 7808.4,890 C 7789.28,901.04 7782.16,924.551 7792.51,942.476 C 7802.86,960.402 7826.78,965.991 7845.9,954.951 C 7865.02,943.912 7888.94,949.501 7899.29,967.427 C 7909.64,985.352 7902.52,1008.86 7883.4,1019.9 C 7864.28,1030.94 7857.16,1054.45 7867.51,1072.38 C 7877.86,1090.3 7901.78,1095.89 7920.9,1084.85 C 7940.02,1073.81 7963.94,1079.4 7974.29,1097.33 C 7984.64,1115.25 7977.52,1138.77 7958.4,1149.81 C 7939.28,1160.84 7932.16,1184.36 7942.51,1202.28 C 7952.86,1220.21 7976.78,1225.8 7995.9,1214.76 C 8015.02,1203.72 8038.95,1209.31 8049.3,1227.23 C 8059.64,1245.16 8052.53,1268.67 8033.4,1279.71 C 8014.28,1290.75 8007.16,1314.26 8017.51,1332.18 C 8027.86,1350.11 8051.78,1355.7 8070.91,1344.66 C 8090.03,1333.62 8113.95,1339.21 8124.3,1357.13 " />
<text x="0" y="0" stroke="transparent" fill="#000000" transform="matrix(0.1 0 0 0.1 656.41 116.06)" style="font:normal normal bold 200px 'Inter'" >
H</text>
<text x="0" y="0" stroke="transparent" fill="#000000" transform="matrix(0.1 0 0 0.1 671.332 120.86)" style="font:normal normal bold 150px 'Inter'" >
9</text>
<path stroke="transparent" fill="#000000" transform="matrix(0.1 0 0 0.1 -118 -76)" d="M 7844.82,1710.54 L 7728.9,1741.58 L 7684.4,1382.08 L 7703.72,1376.9 L 7844.82,1710.54 Z " />
<text x="0" y="0" stroke="transparent" fill="#000000" transform="matrix(0.1 0 0 0.1 565.265 116.06)" style="font:normal normal bold 200px 'Inter'" >
H</text>
<text x="0" y="0" stroke="transparent" fill="#000000" transform="matrix(0.1 0 0 0.1 580.187 120.86)" style="font:normal normal bold 150px 'Inter'" >
10</text>
<path stroke="transparent" fill="#000000" transform="matrix(0.1 0 0 0.1 -118 -76)" d="M 6997.68,1741.8 L 6881.77,1710.73 L 7023.45,1375.39 L 7042.77,1380.57 L 6997.68,1741.8 Z " />
<text x="0" y="0" stroke="transparent" fill="#000000" transform="matrix(0.1 0 0 0.1 692.85 88.1)" style="font:normal normal bold 200px 'Inter'" >
H</text>
<path stroke="transparent" fill="#000000" transform="matrix(0.1 0 0 0.1 -118 -76)" d="M 8102.28,1449.12 L 8042.28,1553.04 L 8027.03,1539.46 L 8082.9,1442.69 L 8102.28,1449.12 Z " />
<path stroke="transparent" fill="#000000" transform="matrix(0.1 0 0 0.1 -118 -76)" d="M 8048.41,1431.25 L 7999.88,1515.31 L 7984.62,1501.74 L 8029.03,1424.83 L 8048.41,1431.25 Z " />
<path stroke="transparent" fill="#000000" transform="matrix(0.1 0 0 0.1 -118 -76)" d="M 7994.54,1413.39 L 7957.48,1477.59 L 7942.22,1464.01 L 7975.16,1406.97 L 7994.54,1413.39 Z " />
<path stroke="transparent" fill="#000000" transform="matrix(0.1 0 0 0.1 -118 -76)" d="M 7940.67,1395.53 L 7915.07,1439.86 L 7899.81,1426.29 L 7921.28,1389.1 L 7940.67,1395.53 Z " />
<path stroke="transparent" fill="#000000" transform="matrix(0.1 0 0 0.1 -118 -76)" d="M 7886.79,1377.67 L 7872.67,1402.14 L 7857.41,1388.56 L 7867.41,1371.24 L 7886.79,1377.67 Z " />
<text x="0" y="0" stroke="transparent" fill="#000000" transform="matrix(0.1 0 0 0.1 528.93 88.1)" style="font:normal normal bold 200px 'Inter'" >
H</text>
<path stroke="transparent" fill="#000000" transform="matrix(0.1 0 0 0.1 -118 -76)" d="M 6684.52,1553.04 L 6624.51,1449.12 L 6643.22,1441.51 L 6700.46,1540.65 L 6684.52,1553.04 Z " />
<path stroke="transparent" fill="#000000" transform="matrix(0.1 0 0 0.1 -118 -76)" d="M 6729.95,1517.72 L 6677.82,1427.43 L 6696.52,1419.82 L 6745.89,1505.32 L 6729.95,1517.72 Z " />
<path stroke="transparent" fill="#000000" transform="matrix(0.1 0 0 0.1 -118 -76)" d="M 6775.38,1482.39 L 6731.13,1405.74 L 6749.83,1398.13 L 6791.32,1470 L 6775.38,1482.39 Z " />
<path stroke="transparent" fill="#000000" transform="matrix(0.1 0 0 0.1 -118 -76)" d="M 6820.81,1447.07 L 6784.43,1384.06 L 6803.13,1376.45 L 6836.75,1434.68 L 6820.81,1447.07 Z " />
<path stroke="transparent" fill="#000000" transform="matrix(0.1 0 0 0.1 -118 -76)" d="M 6866.25,1411.75 L 6837.74,1362.37 L 6856.44,1354.76 L 6882.19,1399.36 L 6866.25,1411.75 Z " />
<path stroke="transparent" fill="#000000" transform="matrix(0.1 0 0 0.1 -118 -76)" d="M 6911.68,1376.43 L 6891.04,1340.68 L 6909.75,1333.08 L 6927.62,1364.03 L 6911.68,1376.43 Z " />
<path stroke="transparent" fill="#000000" transform="matrix(0.1 0 0 0.1 -118 -76)" d="M 6957.11,1341.1 L 6944.35,1319 L 6963.05,1311.39 L 6973.05,1328.71 L 6957.11,1341.1 Z " />
<path stroke="transparent" fill="#000000" transform="matrix(0.1 0 0 0.1 -118 -76)" d="M 2603.07,2622 L 2689.73,2622 L 2689.73,2638 L 2603.07,2638 Z " />
<path stroke="transparent" fill="#000000" transform="matrix(0.1 0 0 0.1 -118 -76)" d="M 7082.67,2608.6 L 7169.33,2608.6 L 7169.33,2624.6 L 7082.67,2624.6 Z " />
<text x="0" y="0" stroke="transparent" fill="#000000" transform="matrix(0.1 0 0 0.1 95.12 313.6)" style="font:normal normal bold 240px 'Inter'" >
Intermediate </text>
<text x="0" y="0" stroke="transparent" fill="#000000" transform="matrix(0.1 0 0 0.1 251.467 313.6)" style="font:normal normal bold 240px 'Inter'" >
A</text>
<text x="0" y="0" stroke="transparent" fill="#000000" transform="matrix(0.1 0 0 0.1 538 314.28)" style="font:normal normal bold 240px 'Inter'" >
Intermediate </text>
<text x="0" y="0" stroke="transparent" fill="#000000" transform="matrix(0.1 0 0 0.1 694.347 314.28)" style="font:normal normal bold 240px 'Inter'" >
B</text>
</svg>
