<?xml version="1.0" standalone="no" ?>
<!DOCTYPE svg PUBLIC "-//W3C//DTD SVG 1.1//EN" "http://www.w3.org/Graphics/SVG/1.1/DTD/svg11.dtd">
<svg width="927px" height="479px" viewBox="0 0 927 479" style="background-color: #ffffff00" xmlns="http://www.w3.org/2000/svg" xmlns:xlink="http://www.w3.org/1999/xlink" version="1.1" >
<text x="0" y="0" stroke="transparent" fill="#000000" transform="matrix(0.1 0 0 0.1 4.02998 126)" style="font:normal normal bold 200px 'Inter'" >
NAD(P)H </text>
<text x="0" y="0" stroke="transparent" fill="#000000" transform="matrix(0.1 0 0 0.1 97.2368 126)" style="font:normal normal bold 200px 'Inter'" >
+ </text>
<text x="0" y="0" stroke="transparent" fill="#000000" transform="matrix(0.1 0 0 0.1 115.475 126)" style="font:normal normal bold 200px 'Inter'" >
H</text>
<text x="0" y="0" stroke="transparent" fill="#000000" transform="matrix(0.1 0 0 0.1 130.396 118.4)" style="font:normal normal bold 150px 'Inter'" >
+</text>
<text x="0" y="0" stroke="transparent" fill="#000000" transform="matrix(0.1 0 0 0.1 55.03 212)" style="font:normal normal bold 200px 'Inter'" >
NAD(P)</text>
<path stroke="#000000" stroke-width="20" fill="transparent" transform="matrix(0.1 0 0 0.1 -8.67 -84)" d="M 1625,2850.66 C 1828.6,2647.09 1828.62,2316.6 1625.06,2113 C 1592.87,2080.81 1556.45,2052.86 1517.04,2030.1 " />
<path stroke="transparent" fill="#000000" transform="matrix(0.1 0 0 0.1 -8.67 -84)" d="M 1516.96,2933.54 C 1516.96,2933.54 1615.75,2806.95 1615.75,2806.95 C 1615.75,2806.95 1614.5,2837.1 1625,2850.66 C 1635.5,2864.22 1665.11,2870.68 1665.11,2870.68 C 1665.11,2870.68 1516.96,2933.54 1516.96,2933.54 C 1516.96,2933.54 1516.96,2933.54 1516.96,2933.54 " />
<path stroke="#000000" stroke-width="1" fill="transparent" transform="matrix(0.1 0 0 0.1 -8.67 -84)" d="M 1516.96,2933.54 C 1516.96,2933.54 1615.75,2806.95 1615.75,2806.95 C 1615.75,2806.95 1614.5,2837.1 1625,2850.66 C 1635.5,2864.22 1665.11,2870.68 1665.11,2870.68 C 1665.11,2870.68 1516.96,2933.54 1516.96,2933.54 C 1516.96,2933.54 1516.96,2933.54 1516.96,2933.54 " />
<text x="0" y="0" stroke="transparent" fill="#000000" transform="matrix(0.1 0 0 0.1 187.401 111.5)" style="font:normal normal bold 200px 'Inter'" >
Cytochrome </text>
<text x="0" y="0" stroke="transparent" fill="#000000" transform="matrix(0.1 0 0 0.1 313.886 111.5)" style="font:normal normal bold 200px 'Inter'" >
b</text>
<text x="0" y="0" stroke="transparent" fill="#000000" transform="matrix(0.1 0 0 0.1 326.591 116.3)" style="font:normal normal bold 150px 'Inter'" >
5</text>
<text x="0" y="0" stroke="transparent" fill="#000000" transform="matrix(0.1 0 0 0.1 336.291 111.5)" style="font:normal normal bold 200px 'Inter'" >
 </text>
<text x="0" y="0" stroke="transparent" fill="#000000" transform="matrix(0.1 0 0 0.1 340.929 111.5)" style="font:normal normal bold 200px 'Inter'" >
reductase</text>
<text x="0" y="0" stroke="transparent" fill="#000000" transform="matrix(0.1 0 0 0.1 272.996 139.4)" style="font:normal normal bold 200px 'Inter'" >
(FADH</text>
<text x="0" y="0" stroke="transparent" fill="#000000" transform="matrix(0.1 0 0 0.1 337.364 144.2)" style="font:normal normal bold 150px 'Inter'" >
2</text>
<text x="0" y="0" stroke="transparent" fill="#000000" transform="matrix(0.1 0 0 0.1 346.864 139.4)" style="font:normal normal bold 200px 'Inter'" >
)</text>
<text x="0" y="0" stroke="transparent" fill="#000000" transform="matrix(0.1 0 0 0.1 187.401 195)" style="font:normal normal bold 200px 'Inter'" >
Cytochrome </text>
<text x="0" y="0" stroke="transparent" fill="#000000" transform="matrix(0.1 0 0 0.1 313.886 195)" style="font:normal normal bold 200px 'Inter'" >
b</text>
<text x="0" y="0" stroke="transparent" fill="#000000" transform="matrix(0.1 0 0 0.1 326.591 199.8)" style="font:normal normal bold 150px 'Inter'" >
5</text>
<text x="0" y="0" stroke="transparent" fill="#000000" transform="matrix(0.1 0 0 0.1 336.291 195)" style="font:normal normal bold 200px 'Inter'" >
 </text>
<text x="0" y="0" stroke="transparent" fill="#000000" transform="matrix(0.1 0 0 0.1 340.929 195)" style="font:normal normal bold 200px 'Inter'" >
reductase</text>
<text x="0" y="0" stroke="transparent" fill="#000000" transform="matrix(0.1 0 0 0.1 285.207 222.9)" style="font:normal normal bold 200px 'Inter'" >
(FAD)</text>
<path stroke="#000000" stroke-width="20" fill="transparent" transform="matrix(0.1 0 0 0.1 -8.67 -84)" d="M 1930.71,2113.09 C 1726.9,2316.52 1726.65,2647.01 1930.15,2850.74 C 1962.32,2882.95 1998.74,2910.93 2038.15,2933.72 " />
<path stroke="transparent" fill="#000000" transform="matrix(0.1 0 0 0.1 -8.67 -84)" d="M 2038.85,2030.28 C 2038.85,2030.28 1939.93,2156.81 1939.93,2156.81 C 1939.93,2156.81 1941.21,2126.67 1930.71,2113.09 C 1920.22,2099.52 1890.61,2093.03 1890.61,2093.03 C 1890.61,2093.03 2038.85,2030.28 2038.85,2030.28 C 2038.85,2030.28 2038.85,2030.28 2038.85,2030.28 " />
<path stroke="#000000" stroke-width="1" fill="transparent" transform="matrix(0.1 0 0 0.1 -8.67 -84)" d="M 2038.85,2030.28 C 2038.85,2030.28 1939.93,2156.81 1939.93,2156.81 C 1939.93,2156.81 1941.21,2126.67 1930.71,2113.09 C 1920.22,2099.52 1890.61,2093.03 1890.61,2093.03 C 1890.61,2093.03 2038.85,2030.28 2038.85,2030.28 C 2038.85,2030.28 2038.85,2030.28 2038.85,2030.28 " />
<path stroke="#000000" stroke-width="20" fill="transparent" transform="matrix(0.1 0 0 0.1 -8.67 -84)" d="M 4808.64,2102.48 C 4605.75,2306.83 4607,2637.45 4811.42,2840.42 C 4843.74,2872.51 4880.28,2900.34 4919.8,2922.98 " />
<path stroke="transparent" fill="#000000" transform="matrix(0.1 0 0 0.1 -8.67 -84)" d="M 4916.4,2019.19 C 4916.4,2019.19 4818.04,2146.17 4818.04,2146.17 C 4818.04,2146.17 4819.19,2116.01 4808.64,2102.48 C 4798.09,2088.95 4768.45,2082.59 4768.45,2082.59 C 4768.45,2082.59 4916.4,2019.19 4916.4,2019.19 C 4916.4,2019.19 4916.4,2019.19 4916.4,2019.19 " />
<path stroke="#000000" stroke-width="1" fill="transparent" transform="matrix(0.1 0 0 0.1 -8.67 -84)" d="M 4916.4,2019.19 C 4916.4,2019.19 4818.04,2146.17 4818.04,2146.17 C 4818.04,2146.17 4819.19,2116.01 4808.64,2102.48 C 4798.09,2088.95 4768.45,2082.59 4768.45,2082.59 C 4768.45,2082.59 4916.4,2019.19 4916.4,2019.19 C 4916.4,2019.19 4916.4,2019.19 4916.4,2019.19 " />
<path stroke="#000000" stroke-width="20" fill="transparent" transform="matrix(0.1 0 0 0.1 -8.67 -84)" d="M 4505.62,2841.24 C 4708.65,2637.11 4707.77,2306.62 4503.64,2103.58 C 4471.36,2071.48 4434.87,2043.64 4395.39,2020.98 " />
<path stroke="transparent" fill="#000000" transform="matrix(0.1 0 0 0.1 -8.67 -84)" d="M 4397.81,2924.42 C 4397.81,2924.42 4496.25,2797.55 4496.25,2797.55 C 4496.25,2797.55 4495.08,2827.71 4505.62,2841.24 C 4516.15,2854.77 4545.78,2861.16 4545.78,2861.16 C 4545.78,2861.16 4397.81,2924.42 4397.81,2924.42 C 4397.81,2924.42 4397.81,2924.42 4397.81,2924.42 " />
<path stroke="#000000" stroke-width="1" fill="transparent" transform="matrix(0.1 0 0 0.1 -8.67 -84)" d="M 4397.81,2924.42 C 4397.81,2924.42 4496.25,2797.55 4496.25,2797.55 C 4496.25,2797.55 4495.08,2827.71 4505.62,2841.24 C 4516.15,2854.77 4545.78,2861.16 4545.78,2861.16 C 4545.78,2861.16 4397.81,2924.42 4397.81,2924.42 C 4397.81,2924.42 4397.81,2924.42 4397.81,2924.42 " />
<text x="0" y="0" stroke="transparent" fill="#000000" transform="matrix(0.1 0 0 0.1 480.113 109)" style="font:normal normal bold 200px 'Inter'" >
2 </text>
<text x="0" y="0" stroke="transparent" fill="#000000" transform="matrix(0.1 0 0 0.1 497.351 109)" style="font:normal normal bold 200px 'Inter'" >
cytochrome </text>
<text x="0" y="0" stroke="transparent" fill="#000000" transform="matrix(0.1 0 0 0.1 620.541 109)" style="font:normal normal bold 200px 'Inter'" >
b</text>
<text x="0" y="0" stroke="transparent" fill="#000000" transform="matrix(0.1 0 0 0.1 633.247 113.8)" style="font:normal normal bold 150px 'Inter'" >
5</text>
<text x="0" y="0" stroke="transparent" fill="#000000" transform="matrix(0.1 0 0 0.1 531.63 137.85)" style="font:normal normal bold 200px 'Inter'" >
(Fe</text>
<text x="0" y="0" stroke="transparent" fill="#000000" transform="matrix(0.1 0 0 0.1 563.53 130.25)" style="font:normal normal bold 150px 'Inter'" >
2+</text>
<text x="0" y="0" stroke="transparent" fill="#000000" transform="matrix(0.1 0 0 0.1 583.23 137.85)" style="font:normal normal bold 200px 'Inter'" >
)</text>
<text x="0" y="0" stroke="transparent" fill="#000000" transform="matrix(0.1 0 0 0.1 482.113 188.5)" style="font:normal normal bold 200px 'Inter'" >
2 </text>
<text x="0" y="0" stroke="transparent" fill="#000000" transform="matrix(0.1 0 0 0.1 499.351 188.5)" style="font:normal normal bold 200px 'Inter'" >
cytochrome </text>
<text x="0" y="0" stroke="transparent" fill="#000000" transform="matrix(0.1 0 0 0.1 622.541 188.5)" style="font:normal normal bold 200px 'Inter'" >
b</text>
<text x="0" y="0" stroke="transparent" fill="#000000" transform="matrix(0.1 0 0 0.1 635.247 193.3)" style="font:normal normal bold 150px 'Inter'" >
5</text>
<text x="0" y="0" stroke="transparent" fill="#000000" transform="matrix(0.1 0 0 0.1 533.43 217.35)" style="font:normal normal bold 200px 'Inter'" >
(Fe</text>
<text x="0" y="0" stroke="transparent" fill="#000000" transform="matrix(0.1 0 0 0.1 565.33 209.75)" style="font:normal normal bold 150px 'Inter'" >
3+</text>
<text x="0" y="0" stroke="transparent" fill="#000000" transform="matrix(0.1 0 0 0.1 585.43 217.35)" style="font:normal normal bold 200px 'Inter'" >
)</text>
<path stroke="transparent" fill="#000000" transform="matrix(0.1 0 0 0.1 -8.67 -84)" d="M 6327.8,1305.25 L 6327.8,1328.35 L 6080,1471.55 L 6080,1448.45 L 6327.8,1305.25 Z " />
<path stroke="transparent" fill="#000000" transform="matrix(0.1 0 0 0.1 -8.67 -84)" d="M 6575.6,1448.45 L 6575.6,1471.55 L 6327.8,1328.35 L 6327.8,1305.25 L 6575.6,1448.45 Z " />
<path stroke="transparent" fill="#000000" transform="matrix(0.1 0 0 0.1 -8.67 -84)" d="M 6823.6,1305.25 L 6823.6,1328.35 L 6575.6,1471.55 L 6575.6,1448.45 L 6823.6,1305.25 Z " />
<path stroke="transparent" fill="#000000" transform="matrix(0.1 0 0 0.1 -8.67 -84)" d="M 7071.4,1448.45 L 7071.4,1471.55 L 6823.6,1328.35 L 6823.6,1305.25 L 7071.4,1448.45 Z " />
<path stroke="transparent" fill="#000000" transform="matrix(0.1 0 0 0.1 -8.67 -84)" d="M 7319.2,1305.25 L 7319.2,1328.35 L 7071.4,1471.55 L 7071.4,1448.45 L 7319.2,1305.25 Z " />
<path stroke="transparent" fill="#000000" transform="matrix(0.1 0 0 0.1 -8.67 -84)" d="M 7567.2,1448.45 L 7567.2,1471.55 L 7319.2,1328.35 L 7319.2,1305.25 L 7567.2,1448.45 Z " />
<path stroke="transparent" fill="#000000" transform="matrix(0.1 0 0 0.1 -8.67 -84)" d="M 7815,1305.25 L 7815,1328.35 L 7567.2,1471.55 L 7567.2,1448.45 L 7815,1305.25 Z " />
<path stroke="transparent" fill="#000000" transform="matrix(0.1 0 0 0.1 -8.67 -84)" d="M 8062.8,1448.45 L 8062.8,1471.55 L 7815,1328.35 L 7815,1305.25 L 8062.8,1448.45 Z " />
<path stroke="transparent" fill="#000000" transform="matrix(0.1 0 0 0.1 -8.67 -84)" d="M 8310.6,1305.25 L 8310.6,1328.35 L 8062.8,1471.55 L 8062.8,1448.45 L 8310.6,1305.25 Z " />
<path stroke="transparent" fill="#000000" transform="matrix(0.1 0 0 0.1 -8.67 -84)" d="M 8558.6,1448.45 L 8558.6,1471.55 L 8310.6,1328.35 L 8310.6,1305.25 L 8558.6,1448.45 Z " />
<path stroke="transparent" fill="#000000" transform="matrix(0.1 0 0 0.1 -8.67 -84)" d="M 8806.4,1305.25 L 8806.4,1328.35 L 8558.6,1471.55 L 8558.6,1448.45 L 8806.4,1305.25 Z " />
<path stroke="transparent" fill="#000000" transform="matrix(0.1 0 0 0.1 -8.67 -84)" d="M 5832.2,1328.35 L 5832.2,1305.25 L 6080,1448.45 L 6080,1471.55 L 5832.2,1328.35 Z " />
<path stroke="transparent" fill="#000000" transform="matrix(0.1 0 0 0.1 -8.67 -84)" d="M 5584.2,1471.55 L 5584.2,1448.45 L 5832.2,1305.25 L 5832.2,1328.35 L 5584.2,1471.55 Z " />
<path stroke="transparent" fill="#000000" transform="matrix(0.1 0 0 0.1 -8.67 -84)" d="M 5336.4,1328.35 L 5336.4,1305.25 L 5584.2,1448.45 L 5584.2,1471.55 L 5336.4,1328.35 Z " />
<text x="0" y="0" stroke="transparent" fill="#000000" transform="matrix(0.1 0 0 0.1 517.17 26.66)" style="font:normal normal bold 200px 'Inter'" >
O</text>
<path stroke="transparent" fill="#000000" transform="matrix(0.1 0 0 0.1 -8.67 -84)" d="M 5301.4,1148.27 L 5321.4,1148.27 L 5321.4,1331.25 L 5301.4,1331.25 L 5301.4,1148.27 Z " />
<path stroke="transparent" fill="#000000" transform="matrix(0.1 0 0 0.1 -8.67 -84)" d="M 5351.4,1148.27 L 5371.4,1148.27 L 5371.4,1331.25 L 5351.4,1331.25 L 5351.4,1148.27 Z " />
<text x="0" y="0" stroke="transparent" fill="#000000" transform="matrix(0.1 0 0 0.1 465.347 69.6)" style="font:normal normal bold 200px 'Inter'" >
CoA</text>
<path stroke="transparent" fill="#000000" transform="matrix(0.1 0 0 0.1 -8.67 -84)" d="M 5166.79,1426.37 L 5156.78,1409.05 L 5336.4,1305.25 L 5336.4,1328.35 L 5166.79,1426.37 Z " />
<path stroke="transparent" fill="#000000" transform="matrix(0.1 0 0 0.1 -8.67 -84)" d="M 9054.2,1448.45 L 9054.2,1471.55 L 8806.4,1328.35 L 8806.4,1305.25 L 9054.2,1448.45 Z " />
<path stroke="transparent" fill="#000000" transform="matrix(0.1 0 0 0.1 -8.67 -84)" d="M 9297,1308.14 L 9307,1325.46 L 9054.2,1471.55 L 9054.2,1448.45 L 9297,1308.14 Z " />
<path stroke="transparent" fill="#000000" transform="matrix(0.1 0 0 0.1 -8.67 -84)" d="M 6497.4,3723.65 L 6497.4,3746.75 L 6251.6,3888.75 L 6251.6,3865.65 L 6497.4,3723.65 Z " />
<path stroke="transparent" fill="#000000" transform="matrix(0.1 0 0 0.1 -8.67 -84)" d="M 6743.2,3865.65 L 6743.2,3888.75 L 6497.4,3746.75 L 6497.4,3723.65 L 6743.2,3865.65 Z " />
<path stroke="transparent" fill="#000000" transform="matrix(0.1 0 0 0.1 -8.67 -84)" d="M 6989,3723.65 L 6989,3746.75 L 6743.2,3888.75 L 6743.2,3865.65 L 6989,3723.65 Z " />
<path stroke="transparent" fill="#000000" transform="matrix(0.1 0 0 0.1 -8.67 -84)" d="M 7234.8,3865.65 L 7234.8,3888.75 L 6989,3746.75 L 6989,3723.65 L 7234.8,3865.65 Z " />
<path stroke="transparent" fill="#000000" transform="matrix(0.1 0 0 0.1 -8.67 -84)" d="M 7480.6,3723.65 L 7480.6,3746.75 L 7234.8,3888.75 L 7234.8,3865.65 L 7480.6,3723.65 Z " />
<path stroke="transparent" fill="#000000" transform="matrix(0.1 0 0 0.1 -8.67 -84)" d="M 7736.4,3871.43 L 7716.4,3882.97 L 7480.6,3746.75 L 7480.6,3723.65 L 7736.4,3871.43 Z " />
<path stroke="transparent" fill="#000000" transform="matrix(0.1 0 0 0.1 -8.67 -84)" d="M 7681.4,3897.4 L 7671.4,3914.72 L 7475.6,3801.6 L 7485.6,3784.28 L 7681.4,3897.4 Z " />
<path stroke="transparent" fill="#000000" transform="matrix(0.1 0 0 0.1 -8.67 -84)" d="M 6005.8,3746.75 L 6005.8,3723.65 L 6251.6,3865.65 L 6251.6,3888.75 L 6005.8,3746.75 Z " />
<path stroke="transparent" fill="#000000" transform="matrix(0.1 0 0 0.1 -8.67 -84)" d="M 5760,3888.75 L 5760,3865.65 L 6005.8,3723.65 L 6005.8,3746.75 L 5760,3888.75 Z " />
<path stroke="transparent" fill="#000000" transform="matrix(0.1 0 0 0.1 -8.67 -84)" d="M 5514.4,3746.75 L 5514.4,3723.65 L 5760,3865.65 L 5760,3888.75 L 5514.4,3746.75 Z " />
<text x="0" y="0" stroke="transparent" fill="#000000" transform="matrix(0.1 0 0 0.1 534.97 268.74)" style="font:normal normal bold 200px 'Inter'" >
O</text>
<path stroke="transparent" fill="#000000" transform="matrix(0.1 0 0 0.1 -8.67 -84)" d="M 5479.4,3569.07 L 5499.4,3569.07 L 5499.4,3749.64 L 5479.4,3749.64 L 5479.4,3569.07 Z " />
<path stroke="transparent" fill="#000000" transform="matrix(0.1 0 0 0.1 -8.67 -84)" d="M 5529.4,3569.07 L 5549.4,3569.07 L 5549.4,3749.65 L 5529.4,3749.65 L 5529.4,3569.07 Z " />
<text x="0" y="0" stroke="transparent" fill="#000000" transform="matrix(0.1 0 0 0.1 483.347 311.32)" style="font:normal normal bold 200px 'Inter'" >
CoA</text>
<path stroke="transparent" fill="#000000" transform="matrix(0.1 0 0 0.1 -8.67 -84)" d="M 5346.79,3843.58 L 5336.78,3826.26 L 5514.4,3723.65 L 5514.4,3746.75 L 5346.79,3843.58 Z " />
<path stroke="transparent" fill="#000000" transform="matrix(0.1 0 0 0.1 -8.67 -84)" d="M 7736.4,4155.23 L 7716.4,4166.77 L 7716.4,3882.97 L 7736.4,3871.43 L 7736.4,4155.23 Z " />
<path stroke="transparent" fill="#000000" transform="matrix(0.1 0 0 0.1 -8.67 -84)" d="M 7982,4297.03 L 7962,4308.57 L 7716.4,4166.77 L 7736.4,4155.23 L 7982,4297.03 Z " />
<path stroke="transparent" fill="#000000" transform="matrix(0.1 0 0 0.1 -8.67 -84)" d="M 7982,4580.83 L 7962,4592.37 L 7962,4308.57 L 7982,4297.03 L 7982,4580.83 Z " />
<path stroke="transparent" fill="#000000" transform="matrix(0.1 0 0 0.1 -8.67 -84)" d="M 8227.8,4722.83 L 8207.8,4734.37 L 7962,4592.37 L 7982,4580.83 L 8227.8,4722.83 Z " />
<path stroke="transparent" fill="#000000" transform="matrix(0.1 0 0 0.1 -8.67 -84)" d="M 8227.8,5006.62 L 8207.8,5018.18 L 8207.8,4734.37 L 8227.8,4722.83 L 8227.8,5006.62 Z " />
<path stroke="transparent" fill="#000000" transform="matrix(0.1 0 0 0.1 -8.67 -84)" d="M 8473.6,5148.42 L 8453.6,5159.98 L 8207.8,5018.18 L 8227.8,5006.62 L 8473.6,5148.42 Z " />
<path stroke="transparent" fill="#000000" transform="matrix(0.1 0 0 0.1 -8.67 -84)" d="M 8473.6,5432.23 L 8453.6,5443.77 L 8453.6,5159.98 L 8473.6,5148.42 L 8473.6,5432.23 Z " />
<path stroke="transparent" fill="#000000" transform="matrix(0.1 0 0 0.1 -8.67 -84)" d="M 8714.4,5571.34 L 8704.4,5588.66 L 8453.6,5443.77 L 8473.6,5432.23 L 8714.4,5571.34 Z " />
<path stroke="transparent" fill="#000000" transform="matrix(0.1 0 0 0.1 -8.67 -84)" d="M 6767.4,3316.6 L 6767.4,1619.8 L 6787.4,1619.8 L 6787.4,3316.6 Z " />
<path stroke="transparent" fill="#000000" transform="matrix(0.1 0 0 0.1 -8.67 -84)" d="M 6777.4,3490.6 C 6777.4,3490.6 6725.4,3290.6 6725.4,3290.6 C 6725.4,3290.6 6754.65,3315.6 6777.4,3315.6 C 6799.71,3315.6 6828.4,3290.6 6828.4,3290.6 C 6828.4,3290.6 6777.4,3490.6 6777.4,3490.6 C 6777.4,3490.6 6777.4,3490.6 6777.4,3490.6 " />
<path stroke="#000000" stroke-width="1" fill="transparent" transform="matrix(0.1 0 0 0.1 -8.67 -84)" d="M 6777.4,3490.6 C 6777.4,3490.6 6725.4,3290.6 6725.4,3290.6 C 6725.4,3290.6 6754.65,3315.6 6777.4,3315.6 C 6799.71,3315.6 6828.4,3290.6 6828.4,3290.6 C 6828.4,3290.6 6777.4,3490.6 6777.4,3490.6 C 6777.4,3490.6 6777.4,3490.6 6777.4,3490.6 " />
<path stroke="#000000" stroke-width="20" fill="transparent" transform="matrix(0.1 0 0 0.1 -8.67 -84)" d="M 6625.62,2821.24 C 6828.65,2617.11 6827.77,2286.62 6623.64,2083.58 C 6591.36,2051.48 6554.87,2023.64 6515.39,2000.98 " />
<path stroke="transparent" fill="#000000" transform="matrix(0.1 0 0 0.1 -8.67 -84)" d="M 6517.81,2904.42 C 6517.81,2904.42 6616.25,2777.55 6616.25,2777.55 C 6616.25,2777.55 6615.08,2807.71 6625.62,2821.24 C 6636.15,2834.77 6665.78,2841.16 6665.78,2841.16 C 6665.78,2841.16 6517.81,2904.42 6517.81,2904.42 C 6517.81,2904.42 6517.81,2904.42 6517.81,2904.42 " />
<path stroke="#000000" stroke-width="1" fill="transparent" transform="matrix(0.1 0 0 0.1 -8.67 -84)" d="M 6517.81,2904.42 C 6517.81,2904.42 6616.25,2777.55 6616.25,2777.55 C 6616.25,2777.55 6615.08,2807.71 6625.62,2821.24 C 6636.15,2834.77 6665.78,2841.16 6665.78,2841.16 C 6665.78,2841.16 6517.81,2904.42 6517.81,2904.42 C 6517.81,2904.42 6517.81,2904.42 6517.81,2904.42 " />
<path stroke="#000000" stroke-width="20" fill="transparent" transform="matrix(0.1 0 0 0.1 -8.67 -84)" d="M 7035.35,2001.35 C 6786.6,2145 6701.3,2463.51 6844.95,2712.25 C 6866.96,2750.37 6893.84,2785.68 6924.72,2817.05 " />
<path stroke="transparent" fill="#000000" transform="matrix(0.1 0 0 0.1 -8.67 -84)" d="M 7035.45,2902.71 C 7035.45,2902.71 6883.42,2837.45 6883.42,2837.45 C 6883.42,2837.45 6913.57,2831.33 6924.72,2817.05 C 6935.86,2802.77 6934.37,2772.17 6934.37,2772.17 C 6934.37,2772.17 7035.45,2902.71 7035.45,2902.71 C 7035.45,2902.71 7035.45,2902.71 7035.45,2902.71 " />
<path stroke="#000000" stroke-width="1" fill="transparent" transform="matrix(0.1 0 0 0.1 -8.67 -84)" d="M 7035.45,2902.71 C 7035.45,2902.71 6883.42,2837.45 6883.42,2837.45 C 6883.42,2837.45 6913.57,2831.33 6924.72,2817.05 C 6935.86,2802.77 6934.37,2772.17 6934.37,2772.17 C 6934.37,2772.17 7035.45,2902.71 7035.45,2902.71 C 7035.45,2902.71 7035.45,2902.71 7035.45,2902.71 " />
<text x="0" y="0" stroke="transparent" fill="#000000" transform="matrix(0.1 0 0 0.1 704.93 122.36)" style="font:normal normal bold 200px 'Inter'" >
O</text>
<text x="0" y="0" stroke="transparent" fill="#000000" transform="matrix(0.1 0 0 0.1 720.569 127.16)" style="font:normal normal bold 150px 'Inter'" >
2</text>
<text x="0" y="0" stroke="transparent" fill="#000000" transform="matrix(0.1 0 0 0.1 706.28 207.84)" style="font:normal normal bold 200px 'Inter'" >
H</text>
<text x="0" y="0" stroke="transparent" fill="#000000" transform="matrix(0.1 0 0 0.1 721.202 212.64)" style="font:normal normal bold 150px 'Inter'" >
2</text>
<text x="0" y="0" stroke="transparent" fill="#000000" transform="matrix(0.1 0 0 0.1 730.702 207.84)" style="font:normal normal bold 200px 'Inter'" >
O</text>
<text x="0" y="0" stroke="transparent" fill="#000000" transform="matrix(0.1 0 0 0.1 594.03 24)" style="font:normal normal bold 200px 'Inter'" >
Stearoyl-CoA </text>
<text x="0" y="0" stroke="transparent" fill="#000000" transform="matrix(0.1 0 0 0.1 732.575 24)" style="font:normal normal bold 200px 'Inter'" >
(18:0)</text>
<text x="0" y="0" stroke="transparent" fill="#000000" transform="matrix(0.1 0 0 0.1 583.03 342)" style="font:normal normal bold 200px 'Inter'" >
Oleoyl-CoA </text>
<text x="0" y="0" stroke="transparent" fill="#000000" transform="matrix(0.1 0 0 0.1 701.949 342)" style="font:normal normal bold 200px 'Inter'" >
(18:1)</text>
<text x="0" y="0" stroke="transparent" fill="#000000" transform="matrix(0.1 0 0 0.1 737.03 277)" style="font:normal normal bold 200px 'Inter'" >
9</text>
<text x="0" y="0" stroke="transparent" fill="#000000" transform="matrix(0.1 0 0 0.1 770.03 300)" style="font:normal normal bold 200px 'Inter'" >
10</text>
</svg>
