<?xml version="1.0" standalone="no" ?>
<!DOCTYPE svg PUBLIC "-//W3C//DTD SVG 1.1//EN" "http://www.w3.org/Graphics/SVG/1.1/DTD/svg11.dtd">
<svg width="978px" height="237px" viewBox="0 0 978 237" style="background-color: #ffffff00" xmlns="http://www.w3.org/2000/svg" xmlns:xlink="http://www.w3.org/1999/xlink" version="1.1" >
<path stroke="transparent" fill="#000000" transform="matrix(0.1 0 0 0.1 -53 -32)" d="M 1048.14,1740.45 L 1048.14,1763.55 L 705,1961.66 L 695,1944.34 L 1048.14,1740.45 Z " />
<path stroke="transparent" fill="#000000" transform="matrix(0.1 0 0 0.1 -53 -32)" d="M 1396.28,1941.45 L 1396.28,1964.55 L 1048.14,1763.55 L 1048.14,1740.45 L 1396.28,1941.45 Z " />
<path stroke="transparent" fill="#000000" transform="matrix(0.1 0 0 0.1 -53 -32)" d="M 1744.43,1740.45 L 1744.43,1763.55 L 1676.71,1802.64 L 1662.07,1788 L 1744.43,1740.45 L 1744.43,1740.45 Z " />
<path stroke="transparent" fill="#000000" transform="matrix(0.1 0 0 0.1 -53 -32)" d="M 1396.28,1964.55 L 1396.28,1941.45 L 1518.62,1870.82 L 1533.26,1885.46 L 1396.28,1964.55 L 1396.28,1964.55 Z " />
<path stroke="transparent" fill="#000000" transform="matrix(0.1 0 0 0.1 -53 -32)" d="M 2092.57,1941.45 L 2092.57,1964.55 L 1744.43,1763.55 L 1744.43,1740.45 L 2092.57,1941.45 Z " />
<path stroke="#000000" stroke-width="20" fill="transparent" transform="matrix(0.1 0 0 0.1 -53 -32)" d="M 1445.93,1685 C 1430.32,1700.61 1429.17,1724.81 1443.37,1739.01 C 1457.57,1753.21 1481.77,1752.06 1497.38,1736.45 C 1512.99,1720.84 1537.19,1719.69 1551.39,1733.89 C 1565.59,1748.09 1564.44,1772.29 1548.83,1787.9 C 1533.22,1803.51 1532.07,1827.71 1546.27,1841.91 C 1560.47,1856.11 1584.67,1854.96 1600.28,1839.35 C 1615.89,1823.74 1640.09,1822.59 1654.29,1836.79 C 1668.49,1850.99 1667.34,1875.18 1651.73,1890.8 C 1636.12,1906.41 1634.97,1930.61 1649.17,1944.81 C 1663.37,1959 1687.57,1957.86 1703.18,1942.25 C 1718.79,1926.63 1742.99,1925.49 1757.19,1939.69 " />
<text x="0" y="0" stroke="transparent" fill="#ff0000" transform="matrix(0.1 0 0 0.1 184.521 150.8)" style="font:normal normal bold 200px 'Inter'" >
S</text>
<path stroke="transparent" fill="#ff0000" transform="matrix(0.1 0 0 0.1 -53 -32)" d="M 2339.28,1799.01 L 2349.28,1816.34 L 2092.57,1964.55 L 2092.57,1941.45 L 2339.28,1799.01 Z " />
<text x="0" y="0" stroke="transparent" fill="#ff0000" transform="matrix(0.1 0 0 0.1 148.457 211.1)" style="font:normal normal bold 200px 'Inter'" >
O</text>
<path stroke="transparent" fill="#ff0000" transform="matrix(0.1 0 0 0.1 -53 -32)" d="M 2127.57,2243.5 L 2107.57,2243.5 L 2107.57,1938.57 L 2127.57,1938.57 L 2127.57,2243.5 Z " />
<path stroke="transparent" fill="#ff0000" transform="matrix(0.1 0 0 0.1 -53 -32)" d="M 2077.57,2243.5 L 2057.57,2243.5 L 2057.57,1938.57 L 2077.57,1938.57 L 2077.57,2243.5 Z " />
<path stroke="transparent" fill="#ff0000" transform="matrix(0.1 0 0 0.1 -53 -32)" d="M 2788.85,1941.45 L 2788.85,1964.55 L 2533.21,1816.95 L 2543.21,1799.63 L 2788.85,1941.45 Z " />
<path stroke="transparent" fill="#ff0000" transform="matrix(0.1 0 0 0.1 -53 -32)" d="M 3137,1740.45 L 3137,1763.55 L 2788.85,1964.55 L 2788.85,1941.45 L 3137,1740.45 Z " />
<text x="0" y="0" stroke="transparent" fill="#ff0000" transform="matrix(0.1 0 0 0.1 288.164 170.9)" style="font:normal normal bold 200px 'Inter'" >
N</text>
<text x="0" y="0" stroke="transparent" fill="#ff0000" transform="matrix(0.1 0 0 0.1 288.164 187.817)" style="font:normal normal bold 200px 'Inter'" >
H</text>
<path stroke="transparent" fill="#ff0000" transform="matrix(0.1 0 0 0.1 -53 -32)" d="M 3380.17,1880.85 L 3370.17,1898.17 L 3137,1763.55 L 3137,1740.45 L 3380.17,1880.85 Z " />
<path stroke="transparent" fill="#ff0000" transform="matrix(0.1 0 0 0.1 -53 -32)" d="M 3833.28,1740.45 L 3833.28,1763.55 L 3600.1,1898.17 L 3590.1,1880.85 L 3833.28,1740.45 Z " />
<path stroke="transparent" fill="#ff0000" transform="matrix(0.1 0 0 0.1 -53 -32)" d="M 4181.42,1941.45 L 4181.42,1964.55 L 3833.28,1763.55 L 3833.28,1740.45 L 4181.42,1941.45 Z " />
<text x="0" y="0" stroke="transparent" fill="#ff0000" transform="matrix(0.1 0 0 0.1 322.528 110.6)" style="font:normal normal bold 200px 'Inter'" >
O</text>
<path stroke="transparent" fill="#ff0000" transform="matrix(0.1 0 0 0.1 -53 -32)" d="M 3798.28,1467.5 L 3818.28,1467.5 L 3818.28,1766.43 L 3798.28,1766.43 L 3798.28,1467.5 Z " />
<path stroke="transparent" fill="#ff0000" transform="matrix(0.1 0 0 0.1 -53 -32)" d="M 3848.28,1467.5 L 3868.28,1467.5 L 3868.28,1766.43 L 3848.28,1766.43 L 3848.28,1467.5 Z " />
<path stroke="transparent" fill="#ff0000" transform="matrix(0.1 0 0 0.1 -53 -32)" d="M 4529.56,1740.45 L 4529.56,1763.55 L 4181.42,1964.55 L 4181.42,1941.45 L 4529.56,1740.45 Z " />
<text x="0" y="0" stroke="transparent" fill="#ff0000" transform="matrix(0.1 0 0 0.1 427.421 170.9)" style="font:normal normal bold 200px 'Inter'" >
N</text>
<text x="0" y="0" stroke="transparent" fill="#ff0000" transform="matrix(0.1 0 0 0.1 427.421 187.817)" style="font:normal normal bold 200px 'Inter'" >
H</text>
<path stroke="transparent" fill="#ff0000" transform="matrix(0.1 0 0 0.1 -53 -32)" d="M 4772.74,1880.85 L 4762.74,1898.17 L 4529.56,1763.55 L 4529.56,1740.45 L 4772.74,1880.85 Z " />
<path stroke="transparent" fill="#000000" transform="matrix(0.1 0 0 0.1 -53 -32)" d="M 5225.85,1740.45 L 5225.85,1763.55 L 4992.67,1898.17 L 4982.67,1880.85 L 5225.85,1740.45 Z " />
<path stroke="transparent" fill="#000000" transform="matrix(0.1 0 0 0.1 -53 -32)" d="M 5574.12,1941.53 L 5573.99,1953 L 5563.09,1958.25 L 5225.85,1763.55 L 5225.85,1740.45 L 5574.12,1941.53 Z " />
<text x="0" y="0" stroke="transparent" fill="#000000" transform="matrix(0.1 0 0 0.1 461.785 110.6)" style="font:normal normal bold 200px 'Inter'" >
O</text>
<path stroke="transparent" fill="#000000" transform="matrix(0.1 0 0 0.1 -53 -32)" d="M 5190.85,1467.5 L 5210.85,1467.5 L 5210.85,1766.43 L 5190.85,1766.43 L 5190.85,1467.5 Z " />
<path stroke="transparent" fill="#000000" transform="matrix(0.1 0 0 0.1 -53 -32)" d="M 5240.85,1467.5 L 5260.85,1467.5 L 5260.85,1766.43 L 5240.85,1766.43 L 5240.85,1467.5 Z " />
<text x="0" y="0" stroke="transparent" fill="#000000" transform="matrix(0.1 0 0 0.1 496.599 211.1)" style="font:normal normal bold 200px 'Inter'" >
OH</text>
<path stroke="transparent" fill="#000000" transform="matrix(0.1 0 0 0.1 -53 -32)" d="M 5633.99,2243.5 L 5513.99,2243.5 L 5563.09,1958.25 L 5573.99,1953 L 5584.92,1958.42 L 5633.99,2243.5 Z " />
<text x="0" y="0" stroke="transparent" fill="#000000" transform="matrix(0.1 0 0 0.1 584.04 145.749)" style="font:normal normal bold 200px 'Inter'" >
P</text>
<text x="0" y="0" stroke="transparent" fill="#000000" transform="matrix(0.1 0 0 0.1 582.74 105.549)" style="font:normal normal bold 200px 'Inter'" >
O</text>
<path stroke="transparent" fill="#000000" transform="matrix(0.1 0 0 0.1 -53 -32)" d="M 6400.4,1416.99 L 6420.4,1416.99 L 6420.4,1592.32 L 6400.4,1592.32 L 6400.4,1416.99 Z " />
<path stroke="transparent" fill="#000000" transform="matrix(0.1 0 0 0.1 -53 -32)" d="M 6450.4,1416.99 L 6470.4,1416.99 L 6470.4,1592.32 L 6450.4,1592.32 L 6450.4,1416.99 Z " />
<text x="0" y="0" stroke="transparent" fill="#000000" transform="matrix(0.1 0 0 0.1 542.54 145.749)" style="font:normal normal bold 200px 'Inter'" >
O</text>
<path stroke="transparent" fill="#000000" transform="matrix(0.1 0 0 0.1 -53 -32)" d="M 6141.4,1711.49 L 6141.4,1691.49 L 6343.4,1691.49 L 6343.4,1711.49 L 6141.4,1711.49 Z " />
<text x="0" y="0" stroke="transparent" fill="#000000" transform="matrix(0.1 0 0 0.1 582.74 185.949)" style="font:normal normal bold 200px 'Inter'" >
O</text>
<path stroke="transparent" fill="#000000" transform="matrix(0.1 0 0 0.1 -53 -32)" d="M 6445.4,1991.99 L 6425.4,1991.99 L 6425.4,1816.32 L 6445.4,1816.32 L 6445.4,1991.99 Z " />
<text x="0" y="0" stroke="transparent" fill="#000000" transform="matrix(0.1 0 0 0.1 622.94 145.749)" style="font:normal normal bold 200px 'Inter'" >
O</text>
<path stroke="transparent" fill="#000000" transform="matrix(0.1 0 0 0.1 -53 -32)" d="M 6730.4,1691.49 L 6730.4,1711.49 L 6532.4,1711.49 L 6532.4,1691.49 L 6730.4,1691.49 Z " />
<text x="0" y="0" stroke="transparent" fill="#000000" transform="matrix(0.1 0 0 0.1 664.44 145.749)" style="font:normal normal bold 200px 'Inter'" >
P</text>
<path stroke="transparent" fill="#000000" transform="matrix(0.1 0 0 0.1 -53 -32)" d="M 7147.4,1691.49 L 7147.4,1711.49 L 6945.4,1711.49 L 6945.4,1691.49 L 7147.4,1691.49 Z " />
<text x="0" y="0" stroke="transparent" fill="#000000" transform="matrix(0.1 0 0 0.1 663.14 105.549)" style="font:normal normal bold 200px 'Inter'" >
O</text>
<path stroke="transparent" fill="#000000" transform="matrix(0.1 0 0 0.1 -53 -32)" d="M 7204.4,1416.99 L 7224.4,1416.99 L 7224.4,1592.32 L 7204.4,1592.32 L 7204.4,1416.99 Z " />
<path stroke="transparent" fill="#000000" transform="matrix(0.1 0 0 0.1 -53 -32)" d="M 7254.4,1416.99 L 7274.4,1416.99 L 7274.4,1592.32 L 7254.4,1592.32 L 7254.4,1416.99 Z " />
<text x="0" y="0" stroke="transparent" fill="#000000" transform="matrix(0.1 0 0 0.1 703.34 145.749)" style="font:normal normal bold 200px 'Inter'" >
O</text>
<path stroke="transparent" fill="#000000" transform="matrix(0.1 0 0 0.1 -53 -32)" d="M 7534.4,1691.49 L 7534.4,1711.49 L 7336.4,1711.49 L 7336.4,1691.49 L 7534.4,1691.49 Z " />
<text x="0" y="0" stroke="transparent" fill="#000000" transform="matrix(0.1 0 0 0.1 663.14 185.949)" style="font:normal normal bold 200px 'Inter'" >
O</text>
<path stroke="transparent" fill="#000000" transform="matrix(0.1 0 0 0.1 -53 -32)" d="M 7249.4,1991.99 L 7229.4,1991.99 L 7229.4,1816.32 L 7249.4,1816.32 L 7249.4,1991.99 Z " />
<path stroke="#000000" stroke-width="16" fill="transparent" transform="matrix(0.1 0 0 0.1 -53 -32)" d="M 6508.95,1977.74 A 53,53 0 1 0 6614.95,1977.74A 53,53 0 1 0 6508.95,1977.74Z " />
<path stroke="transparent" fill="#000000" transform="matrix(0.1 0 0 0.1 -53 -32)" d="M 6529.29,1969.41 L 6593.95,1969.41 L 6593.95,1985.41 L 6529.29,1985.41 Z " />
<path stroke="#000000" stroke-width="16" fill="transparent" transform="matrix(0.1 0 0 0.1 -53 -32)" d="M 7312.95,1977.74 A 53,53 0 1 0 7418.95,1977.74A 53,53 0 1 0 7312.95,1977.74Z " />
<path stroke="transparent" fill="#000000" transform="matrix(0.1 0 0 0.1 -53 -32)" d="M 7333.29,1969.41 L 7397.95,1969.41 L 7397.95,1985.41 L 7333.29,1985.41 Z " />
<text x="0" y="0" stroke="transparent" fill="#000000" transform="matrix(0.1 0 0 0.1 959.218 82.1049)" style="font:normal normal bold 200px 'Inter'" >
N</text>
<text x="0" y="0" stroke="transparent" fill="#000000" transform="matrix(0.1 0 0 0.1 924.417 142.474)" style="font:normal normal bold 200px 'Inter'" >
N</text>
<path stroke="transparent" fill="#000000" transform="matrix(0.1 0 0 0.1 -53 -32)" d="M 10205.7,1472.76 L 10185.7,1461.23 L 10185.7,1179.88 L 10205.7,1179.88 L 10205.7,1472.76 Z " />
<path stroke="transparent" fill="#000000" transform="matrix(0.1 0 0 0.1 -53 -32)" d="M 9962.59,1613.68 L 9952.56,1596.38 L 10185.7,1461.23 L 10205.7,1472.76 L 9962.59,1613.68 Z " />
<path stroke="transparent" fill="#000000" transform="matrix(0.1 0 0 0.1 -53 -32)" d="M 9937.51,1570.43 L 9927.48,1553.12 L 10140.7,1429.53 L 10150.7,1446.84 L 9937.51,1570.43 Z " />
<path stroke="transparent" fill="#000000" transform="matrix(0.1 0 0 0.1 -53 -32)" d="M 9497.79,1477.88 L 9498.94,1466.99 L 9508.94,1461.23 L 9742.75,1596.49 L 9732.73,1613.8 L 9497.79,1477.88 Z " />
<path stroke="transparent" fill="#000000" transform="matrix(0.1 0 0 0.1 -53 -32)" d="M 9488.94,1072.31 L 9498.94,1065.05 L 9508.94,1070.83 L 9508.94,1461.23 L 9498.94,1466.99 L 9488.94,1459.73 L 9488.94,1072.31 Z " />
<path stroke="transparent" fill="#000000" transform="matrix(0.1 0 0 0.1 -53 -32)" d="M 9538.94,1093.94 L 9558.94,1093.94 L 9558.94,1438.16 L 9538.94,1438.16 L 9538.94,1093.94 Z " />
<path stroke="transparent" fill="#000000" transform="matrix(0.1 0 0 0.1 -53 -32)" d="M 9837.67,858.244 L 9847.67,864.022 L 9847.67,875.567 L 9508.94,1070.83 L 9498.94,1065.05 L 9497.8,1054.16 L 9837.67,858.244 Z " />
<path stroke="transparent" fill="#000000" transform="matrix(0.1 0 0 0.1 -53 -32)" d="M 9847.67,875.567 L 9847.67,864.022 L 9857.67,858.25 L 10090.7,992.874 L 10080.7,1010.19 L 9847.67,875.567 Z " />
<path stroke="transparent" fill="#000000" transform="matrix(0.1 0 0 0.1 -53 -32)" d="M 9842.64,930.408 L 9852.65,913.09 L 10065.7,1036.17 L 10055.7,1053.49 L 9842.64,930.408 Z " />
<text x="0" y="0" stroke="transparent" fill="#000000" transform="matrix(0.1 0 0 0.1 851.33 69.676)" style="font:normal normal bold 200px 'Inter'" >
N</text>
<path stroke="transparent" fill="#000000" transform="matrix(0.1 0 0 0.1 -53 -32)" d="M 9028.68,1044.96 L 9044.85,1056.72 L 8892.68,1266.02 L 8867.96,1266.02 L 9028.68,1044.96 Z " />
<path stroke="transparent" fill="#000000" transform="matrix(0.1 0 0 0.1 -53 -32)" d="M 9069.12,1074.37 L 9085.3,1086.13 L 8950.23,1271.9 L 8934.05,1260.14 L 9069.12,1074.37 Z " />
<path stroke="transparent" fill="#000000" transform="matrix(0.1 0 0 0.1 -53 -32)" d="M 9227.59,987.309 L 9233.78,968.289 L 9497.8,1054.16 L 9498.94,1065.05 L 9488.94,1072.31 L 9227.59,987.309 Z " />
<text x="0" y="0" stroke="transparent" fill="#000000" transform="matrix(0.1 0 0 0.1 924.417 21.8022)" style="font:normal normal bold 200px 'Inter'" >
NH</text>
<text x="0" y="0" stroke="transparent" fill="#000000" transform="matrix(0.1 0 0 0.1 954.041 26.6022)" style="font:normal normal bold 150px 'Inter'" >
2</text>
<path stroke="transparent" fill="#000000" transform="matrix(0.1 0 0 0.1 -53 -32)" d="M 9837.67,576.855 L 9857.67,576.855 L 9857.67,858.25 L 9847.67,864.022 L 9837.67,858.244 L 9837.67,576.855 Z " />
<text x="0" y="0" stroke="transparent" fill="#000000" transform="matrix(0.1 0 0 0.1 851.33 134.728)" style="font:normal normal bold 200px 'Inter'" >
N</text>
<text x="0" y="0" stroke="transparent" fill="#000000" transform="matrix(0.1 0 0 0.1 797.151 157.682)" style="font:normal normal bold 200px 'Inter'" >
O</text>
<path stroke="transparent" fill="#000000" transform="matrix(0.1 0 0 0.1 -53 -32)" d="M 8908.26,2218.33 L 8918.26,2258.33 L 8908.26,2298.33 L 8252.16,2298.33 L 8242.16,2258.33 L 8252.16,2218.33 L 8908.26,2218.33 Z " />
<path stroke="transparent" fill="#000000" transform="matrix(0.1 0 0 0.1 -53 -32)" d="M 9103.99,2025.94 L 9123.5,2022.51 L 9113.5,2057.21 L 8928.26,2354.26 L 8918.26,2258.33 L 8928.26,2172.77 L 9103.99,2025.94 Z " />
<path stroke="transparent" fill="#000000" transform="matrix(0.1 0 0 0.1 -53 -32)" d="M 8680.27,1868.84 L 8687.23,1850.09 L 9113.28,2008.05 L 9123.5,2022.51 L 9103.99,2025.94 L 8680.27,1868.84 Z " />
<path stroke="transparent" fill="#000000" transform="matrix(0.1 0 0 0.1 -53 -32)" d="M 8052.34,2025.9 L 8032.64,2022.51 L 8042.64,2008.16 L 8472.1,1849.78 L 8479.02,1868.54 L 8052.34,2025.9 Z " />
<path stroke="transparent" fill="#000000" transform="matrix(0.1 0 0 0.1 -53 -32)" d="M 8042.64,2056.46 L 8032.64,2022.51 L 8052.34,2025.9 L 8232.16,2173.46 L 8242.16,2258.33 L 8232.16,2352.65 L 8042.64,2056.46 Z " />
<text x="0" y="0" stroke="transparent" fill="#000000" transform="matrix(0.1 0 0 0.1 831.026 227.994)" style="font:normal normal bold 200px 'Inter'" >
OH</text>
<path stroke="transparent" fill="#000000" transform="matrix(0.1 0 0 0.1 -53 -32)" d="M 8928.26,2412.44 L 8908.26,2412.44 L 8908.26,2298.33 L 8918.26,2258.33 L 8928.26,2354.26 L 8928.26,2412.44 Z " />
<text x="0" y="0" stroke="transparent" fill="#000000" transform="matrix(0.1 0 0 0.1 831.376 180.692)" style="font:normal normal bold 200px 'Inter'" >
H</text>
<path stroke="transparent" fill="#000000" transform="matrix(0.1 0 0 0.1 -53 -32)" d="M 8908.26,2165.75 L 8928.26,2165.75 L 8928.26,2172.77 L 8918.26,2258.33 L 8908.26,2218.33 L 8908.26,2165.75 Z " />
<text x="0" y="0" stroke="transparent" fill="#000000" transform="matrix(0.1 0 0 0.1 763.766 180.692)" style="font:normal normal bold 200px 'Inter'" >
H</text>
<path stroke="transparent" fill="#000000" transform="matrix(0.1 0 0 0.1 -53 -32)" d="M 8232.16,2165.75 L 8252.16,2165.75 L 8252.16,2218.33 L 8242.16,2258.33 L 8232.16,2173.46 L 8232.16,2165.75 Z " />
<text x="0" y="0" stroke="transparent" fill="#000000" transform="matrix(0.1 0 0 0.1 851.9 212.369)" style="font:normal normal bold 200px 'Inter'" >
H</text>
<path stroke="transparent" fill="#000000" transform="matrix(0.1 0 0 0.1 -53 -32)" d="M 9133.5,2258.53 L 9113.5,2258.53 L 9113.5,2057.21 L 9123.5,2022.51 L 9133.5,2022.51 L 9133.5,2258.53 Z " />
<path stroke="transparent" fill="#000000" transform="matrix(0.1 0 0 0.1 -53 -32)" d="M 8022.64,1710.12 L 8042.64,1690.04 L 8042.64,2008.16 L 8032.64,2022.51 L 8022.64,2022.51 L 8022.64,1710.12 Z " />
<text x="0" y="0" stroke="transparent" fill="#000000" transform="matrix(0.1 0 0 0.1 742.814 212.369)" style="font:normal normal bold 200px 'Inter'" >
H</text>
<path stroke="transparent" fill="#000000" transform="matrix(0.1 0 0 0.1 -53 -32)" d="M 8042.64,2258.53 L 8022.64,2258.53 L 8022.64,2022.51 L 8032.64,2022.51 L 8042.64,2056.46 L 8042.64,2258.53 Z " />
<path stroke="transparent" fill="#000000" transform="matrix(0.1 0 0 0.1 -53 -32)" d="M 9232.99,1564.01 L 9226.81,1544.99 L 9488.94,1459.73 L 9498.94,1466.99 L 9497.79,1477.88 L 9232.99,1564.01 Z " />
<path stroke="transparent" fill="#000000" transform="matrix(0.1 0 0 0.1 -53 -32)" d="M 9047.55,1479.03 L 9031.37,1490.79 L 8867.96,1266.02 L 8892.68,1266.02 L 9047.55,1479.03 Z " />
<text x="0" y="0" stroke="transparent" fill="#000000" transform="matrix(0.1 0 0 0.1 764.716 227.284)" style="font:normal normal bold 200px 'Inter'" >
PO</text>
<text x="0" y="0" stroke="transparent" fill="#000000" transform="matrix(0.1 0 0 0.1 793.355 232.084)" style="font:normal normal bold 150px 'Inter'" >
3</text>
<text x="0" y="0" stroke="transparent" fill="#000000" transform="matrix(0.1 0 0 0.1 803.255 219.684)" style="font:normal normal bold 150px 'Inter'" >
2-</text>
<path stroke="transparent" fill="#000000" transform="matrix(0.1 0 0 0.1 -53 -32)" d="M 8252.16,2407.17 L 8232.16,2407.17 L 8232.16,2352.65 L 8242.16,2258.33 L 8252.16,2298.33 L 8252.16,2407.17 Z " />
<path stroke="transparent" fill="#000000" transform="matrix(0.1 0 0 0.1 -53 -32)" d="M 9108.59,1706.25 L 9128.59,1705.94 L 9133.5,2022.36 L 9123.5,2022.51 L 9113.28,2008.05 L 9108.59,1706.25 Z " />
<path stroke="transparent" fill="#000000" transform="matrix(0.1 0 0 0.1 -53 -32)" d="M 7749.44,1711.1 L 7749.37,1691.1 L 8042.64,1690.04 L 8022.64,1710.12 L 7749.44,1711.1 Z " />
<path stroke="transparent" fill="#000000" transform="matrix(0.1 0 0 0.1 -53 -32)" d="M 5930.07,1746.66 L 5939.68,1764.2 L 5584.92,1958.42 L 5573.99,1953 L 5574.12,1941.53 L 5930.07,1746.66 Z " />
<text x="0" y="0" stroke="transparent" fill="#000000" transform="matrix(0.1 0 0 0.1 114.5 118)" style="font:normal normal bold 240px 'Inter'" >
2</text>
<text x="0" y="0" stroke="transparent" fill="#000000" transform="matrix(0.1 0 0 0.1 73.5 202)" style="font:normal normal bold 240px 'Inter'" >
16</text>
<text x="0" y="0" stroke="transparent" fill="#000000" transform="matrix(0.1 0 0 0.1 39.5 119)" style="font:normal normal bold 240px 'Inter'" >
17</text>
<text x="0" y="0" stroke="transparent" fill="#000000" transform="matrix(0.1 0 0 0.1 4.5 200)" style="font:normal normal bold 240px 'Inter'" >
18</text>
<text x="0" y="0" stroke="transparent" fill="#000000" transform="matrix(0.1 0 0 0.1 81.5 51.3333)" style="font:normal normal normal 360px 'Inter'" >
1</text>
<text x="0" y="0" stroke="transparent" fill="#000000" transform="matrix(0.1 0 0 0.1 308.167 51)" style="font:normal normal normal 360px 'Inter'" >
2</text>
<text x="0" y="0" stroke="transparent" fill="#000000" transform="matrix(0.1 0 0 0.1 643.5 52.6667)" style="font:normal normal normal 360px 'Inter'" >
3</text>
<path stroke="#000000" stroke-width="20" fill="transparent" transform="matrix(0.1 0 0 0.1 -53 -32)" d="M 1178.02,710 A 246.982,246.982 0 1 0 1671.98,710A 246.982,246.982 0 1 0 1178.02,710Z " />
<path stroke="#000000" stroke-width="20" fill="transparent" transform="matrix(0.1 0 0 0.1 -53 -32)" d="M 3468.02,720 A 246.982,246.982 0 1 0 3961.98,720A 246.982,246.982 0 1 0 3468.02,720Z " />
<path stroke="#000000" stroke-width="20" fill="transparent" transform="matrix(0.1 0 0 0.1 -53 -32)" d="M 6828.02,720 A 246.982,246.982 0 1 0 7321.98,720A 246.982,246.982 0 1 0 6828.02,720Z " />
</svg>
